<svg version="1.1" id="Layer_1" xmlns="http://www.w3.org/2000/svg" xmlns:xlink="http://www.w3.org/1999/xlink" x="0px" y="0px"
	 width="100%" viewBox="0 0 500 500" enable-background="new 0 0 500 500" xml:space="preserve">
<path fill="#FFFFFF" opacity="1.000000" stroke="none" 
	d="
M501.000000,196.000000 
	C501.000000,297.999969 501.000000,399.499969 501.000000,500.999939 
	C334.333405,500.999969 167.666794,500.999969 1.000144,501.000000 
	C1.000096,334.333435 1.000096,167.666870 1.000048,1.000233 
	C167.666519,1.000156 334.333038,1.000156 500.999786,1.000078 
	C501.000000,65.833336 501.000000,130.666672 501.000000,196.000000 
M381.579193,92.805847 
	C381.579193,92.805847 381.582672,92.711319 381.472290,91.819237 
	C381.444092,85.987183 381.109802,80.137383 381.446503,74.326469 
	C382.366974,58.442478 371.321808,51.179028 358.544434,51.222252 
	C274.548004,51.506397 190.550156,51.368683 106.552773,51.369694 
	C105.219612,51.369713 103.880310,51.302708 102.554268,51.403633 
	C91.314247,52.259102 83.949051,60.167580 83.948364,71.433014 
	C83.941154,188.929352 83.939865,306.425690 83.952789,423.922028 
	C83.954155,436.315826 91.787262,444.060120 104.181190,444.196228 
	C112.151443,444.283752 120.119827,444.541931 128.388718,445.392151 
	C131.452652,446.571350 134.421631,448.286346 137.594879,448.848694 
	C179.679962,456.306732 221.794189,463.600464 263.900238,470.940338 
	C303.886200,477.910645 343.883728,484.815674 383.851013,491.891663 
	C403.171143,495.312164 410.918396,490.150543 414.160187,471.349030 
	C418.185394,448.004028 422.299500,424.674377 426.392517,401.341095 
	C431.257416,373.607391 436.174835,345.882904 441.006714,318.143463 
	C446.151764,288.606171 451.176727,259.047974 456.339600,229.513809 
	C462.157990,196.229645 468.157776,162.976990 473.899139,129.679672 
	C476.025177,117.349541 469.375061,108.222702 457.020081,105.831573 
	C450.837860,104.635109 444.641113,103.507957 438.435486,102.439186 
	C419.490112,99.176285 400.537231,95.956940 381.579193,92.805847 
z"/>
<path fill="#050505" opacity="1.000000" stroke="none" 
	d="
M128.089050,444.723602 
	C120.119827,444.541931 112.151443,444.283752 104.181190,444.196228 
	C91.787262,444.060120 83.954155,436.315826 83.952789,423.922028 
	C83.939865,306.425690 83.941154,188.929352 83.948364,71.433014 
	C83.949051,60.167580 91.314247,52.259102 102.554268,51.403633 
	C103.880310,51.302708 105.219612,51.369713 106.552773,51.369694 
	C190.550156,51.368683 274.548004,51.506397 358.544434,51.222252 
	C371.321808,51.179028 382.366974,58.442478 381.446503,74.326469 
	C381.109802,80.137383 381.444092,85.987183 381.434784,92.743988 
	C381.402405,98.537918 381.407501,103.407104 381.399414,108.726799 
	C381.384979,113.341591 381.394562,117.505913 381.380859,121.670151 
	C381.303009,145.314240 381.219604,168.958328 381.092834,193.089859 
	C381.078583,196.186035 381.109558,198.794754 381.248047,201.835541 
	C381.459869,214.753464 381.564209,227.239319 381.588226,240.139496 
	C381.408295,242.190521 381.308655,243.827255 381.152527,245.948334 
	C381.107880,247.082184 381.119690,247.731659 381.242981,248.813782 
	C381.354492,259.436493 381.354492,269.626556 381.354492,279.102081 
	C394.419495,281.284668 406.607605,283.320740 419.236755,285.430481 
	C418.717163,287.873627 418.277588,289.940338 417.668793,292.083313 
	C417.281494,292.294037 417.121216,292.478607 416.622009,292.747864 
	C404.700745,290.772247 393.176178,288.762177 381.164001,286.667053 
	C381.164001,297.542175 381.164001,307.515411 381.112915,317.989136 
	C381.112427,320.488403 381.163055,322.487213 381.230713,324.788208 
	C381.317749,325.480988 381.387726,325.871552 381.424408,326.712219 
	C381.354431,336.856812 381.317719,346.551270 381.196106,356.752563 
	C381.113342,359.954865 381.115540,362.650330 381.235291,365.779419 
	C381.293365,377.954742 381.233887,389.696472 381.120728,401.936890 
	C381.088654,405.083527 381.110260,407.731506 381.243225,410.812164 
	C381.363892,414.405975 381.376251,417.567108 381.381226,420.728210 
	C381.383331,422.059174 381.404083,423.391296 381.358002,424.720886 
	C380.949341,436.514648 373.155609,444.147156 361.319397,444.162018 
	C309.909332,444.226501 258.499146,444.245270 206.656586,444.161133 
	C203.576508,444.099670 200.928864,444.157745 197.799377,444.147278 
	C174.844696,444.045990 152.371872,444.013214 129.642578,443.997986 
	C128.953781,444.251526 128.521408,444.487549 128.089050,444.723602 
M98.801331,402.499908 
	C98.801346,408.498535 98.797310,414.497162 98.802376,420.495789 
	C98.809250,428.644897 99.656044,429.477448 108.051941,429.477753 
	C191.197144,429.481018 274.342346,429.481384 357.487549,429.476715 
	C365.713135,429.476257 366.729218,428.461151 366.729370,420.309998 
	C366.731720,305.339691 366.731812,190.369370 366.728851,75.399048 
	C366.728638,67.223152 365.682648,66.177719 357.563354,66.177559 
	C274.418152,66.175934 191.272949,66.176178 108.127754,66.177040 
	C99.459778,66.177132 98.802238,66.838783 98.802147,75.584015 
	C98.800972,184.222641 98.801353,292.861267 98.801331,402.499908 
z"/>
<path fill="#030303" opacity="1.000000" stroke="none" 
	d="
M128.238892,445.057861 
	C128.521408,444.487549 128.953781,444.251526 129.939713,444.308472 
	C153.086807,444.662567 175.680344,444.723694 198.682129,444.779327 
	C201.745514,445.129425 204.400650,445.485046 207.461227,445.922058 
	C209.502136,446.310120 211.134399,446.635193 212.773529,446.920807 
	C252.433380,453.830627 292.094299,460.734558 331.754333,467.643402 
	C351.257568,471.040863 370.755920,474.466705 390.264160,477.835144 
	C396.150360,478.851532 398.082214,477.717926 398.967590,472.670380 
	C405.003265,438.261261 410.997650,403.844940 417.000366,369.430023 
	C425.518280,320.595154 434.029938,271.759155 442.548218,222.924362 
	C448.008057,191.623444 453.505707,160.329071 458.913940,129.019257 
	C460.034668,122.531029 458.809540,121.088341 452.334900,119.977692 
	C443.645691,118.487152 434.978485,116.867538 426.286804,115.392052 
	C411.533539,112.887581 396.768555,110.452431 381.934753,107.526001 
	C381.769775,102.282791 381.678497,97.501717 381.587250,92.720642 
	C400.537231,95.956940 419.490112,99.176285 438.435486,102.439186 
	C444.641113,103.507957 450.837860,104.635109 457.020081,105.831573 
	C469.375061,108.222702 476.025177,117.349541 473.899139,129.679672 
	C468.157776,162.976990 462.157990,196.229645 456.339600,229.513809 
	C451.176727,259.047974 446.151764,288.606171 441.006714,318.143463 
	C436.174835,345.882904 431.257416,373.607391 426.392517,401.341095 
	C422.299500,424.674377 418.185394,448.004028 414.160187,471.349030 
	C410.918396,490.150543 403.171143,495.312164 383.851013,491.891663 
	C343.883728,484.815674 303.886200,477.910645 263.900238,470.940338 
	C221.794189,463.600464 179.679962,456.306732 137.594879,448.848694 
	C134.421631,448.286346 131.452652,446.571350 128.238892,445.057861 
z"/>
<path fill="#707070" opacity="1.000000" stroke="none" 
	d="
M381.583221,92.763245 
	C381.678497,97.501717 381.769775,102.282791 381.835449,107.700729 
	C381.809875,108.337593 381.412628,108.276291 381.412628,108.276291 
	C381.407501,103.407104 381.402405,98.537918 381.489990,93.190025 
	C381.582672,92.711319 381.579193,92.805847 381.583221,92.763245 
z"/>
<path fill="#FEFEFE" opacity="1.000000" stroke="none" 
	d="
M98.801331,401.999878 
	C98.801353,292.861267 98.800972,184.222641 98.802147,75.584015 
	C98.802238,66.838783 99.459778,66.177132 108.127754,66.177040 
	C191.272949,66.176178 274.418152,66.175934 357.563354,66.177559 
	C365.682648,66.177719 366.728638,67.223152 366.728851,75.399048 
	C366.731812,190.369370 366.731720,305.339691 366.729370,420.309998 
	C366.729218,428.461151 365.713135,429.476257 357.487549,429.476715 
	C274.342346,429.481384 191.197144,429.481018 108.051941,429.477753 
	C99.656044,429.477448 98.809250,428.644897 98.802376,420.495789 
	C98.797310,414.497162 98.801346,408.498535 98.801331,401.999878 
M197.499405,314.207336 
	C244.586853,314.207336 291.674316,314.207336 338.751282,314.207336 
	C338.751282,311.460754 338.751282,309.076782 338.751282,306.779602 
	C267.723450,306.779602 197.052185,306.779602 126.365875,306.779602 
	C126.365875,309.392487 126.365875,311.652466 126.365875,314.207275 
	C149.909348,314.207275 173.204346,314.207275 197.499405,314.207336 
M222.500229,229.435730 
	C190.451660,229.435730 158.403076,229.435730 126.398865,229.435730 
	C126.398865,232.441513 126.398865,234.688904 126.398865,236.998444 
	C197.383759,236.998444 268.085907,236.998444 338.942780,236.998444 
	C338.942780,234.495193 338.942780,232.201462 338.942780,229.435776 
	C300.353577,229.435776 261.926910,229.435776 222.500229,229.435730 
M206.499405,191.207321 
	C250.588120,191.207321 294.676819,191.207321 338.747070,191.207321 
	C338.747070,188.452911 338.747070,186.070175 338.747070,183.784073 
	C267.716827,183.784073 197.047348,183.784073 126.370331,183.784073 
	C126.370331,186.395050 126.370331,188.654587 126.370331,191.207291 
	C152.915329,191.207291 179.207336,191.207291 206.499405,191.207321 
M328.481934,352.028687 
	C331.940155,352.028687 335.398346,352.028687 338.847382,352.028687 
	C338.847382,349.309692 338.847382,347.064758 338.847382,344.723267 
	C267.871521,344.723267 197.155838,344.723267 126.404175,344.723267 
	C126.404175,347.253906 126.404175,349.492462 126.404175,352.028687 
	C193.622818,352.028687 260.554077,352.028687 328.481934,352.028687 
M332.393982,389.149475 
	C263.808868,389.149475 195.223755,389.149475 126.436211,389.149475 
	C126.436211,391.995483 126.436211,394.364838 126.436211,396.746277 
	C197.453857,396.746277 268.171326,396.746277 338.701416,396.746277 
	C338.701416,394.080444 338.701416,391.705292 338.701416,389.149475 
	C336.663086,389.149475 335.011963,389.149475 332.393982,389.149475 
M163.500000,267.986572 
	C151.079254,267.986572 138.658508,267.986572 126.443726,267.986572 
	C126.443726,270.972290 126.443726,273.231964 126.443726,275.552612 
	C197.447647,275.552612 268.143860,275.552612 338.924164,275.552612 
	C338.924164,272.975830 338.924164,270.697784 338.924164,267.986572 
	C280.673157,267.986572 222.586578,267.986572 163.500000,267.986572 
M297.588989,97.948586 
	C289.444153,93.101616 280.937195,90.290428 272.626282,96.916275 
	C265.063904,102.945328 260.399872,111.304771 257.470551,120.428207 
	C255.742554,125.810143 257.896637,130.742569 262.460754,133.957687 
	C267.363892,137.411606 272.508209,139.105759 278.214020,135.752014 
	C283.955750,132.377182 288.035889,123.863228 286.992126,117.397224 
	C285.967712,111.050972 281.374451,106.858498 273.595459,105.174736 
	C273.021545,105.050522 272.441895,104.952583 271.729309,104.816521 
	C277.153351,97.451927 283.264221,96.025185 292.442596,100.052444 
	C294.833374,101.101463 296.730011,101.976143 297.588989,97.948586 
M332.100739,119.569054 
	C332.791779,118.258858 333.482819,116.948662 334.330048,115.342308 
	C332.913116,114.672165 331.679749,114.088837 330.283722,113.428581 
	C321.999878,128.429657 313.924194,143.053833 305.753418,157.850143 
	C307.240479,158.695755 308.342682,159.322540 309.706085,160.097839 
	C313.268921,153.654739 317.061951,147.578842 320.071808,141.137009 
	C323.229919,134.377838 326.641449,134.445312 333.092041,135.928589 
	C338.821014,137.245926 340.139069,140.720505 337.325684,145.913239 
	C333.447601,153.071228 329.489960,160.186096 325.586243,167.330261 
	C325.377899,167.711563 325.353119,168.193161 325.221832,168.711090 
	C326.430298,169.356354 327.524109,169.940414 328.875671,170.662094 
	C333.359222,162.584427 337.708740,154.948898 341.859375,147.206757 
	C345.176300,141.019669 343.423920,135.691559 336.883850,133.015244 
	C333.607727,131.674606 329.895416,131.399963 326.081116,130.578796 
	C327.963196,127.175697 329.876038,123.716949 332.100739,119.569054 
M151.092926,145.426544 
	C151.672241,146.981781 152.438705,148.495972 152.790833,150.101044 
	C153.467880,153.187164 155.175873,153.669647 157.879456,152.516342 
	C156.899902,149.774887 155.961334,147.117844 155.001892,144.468353 
	C151.443604,134.642059 147.934265,124.797134 144.237869,115.023003 
	C143.824051,113.928772 142.433121,112.758118 141.310822,112.529793 
	C140.523026,112.369507 138.883667,113.550819 138.541534,114.473152 
	C133.844025,127.137451 129.306061,139.860931 124.736519,152.548721 
	C128.265671,153.930542 129.166519,152.135452 130.058716,149.659180 
	C133.988342,138.752533 134.047440,138.771423 145.676697,138.897018 
	C146.664124,138.907684 147.650879,138.979050 148.775726,139.028244 
	C149.501877,140.950607 150.199921,142.798553 151.092926,145.426544 
M224.088486,123.297478 
	C223.125290,120.649048 222.353561,117.906425 221.116852,115.392548 
	C220.512238,114.163521 219.156937,112.825577 217.921768,112.560562 
	C217.155228,112.396118 215.472504,113.963806 215.060684,115.073158 
	C210.448318,127.498123 206.003235,139.985199 201.496353,152.502197 
	C205.508957,152.999771 205.486328,152.990845 206.671783,149.986099 
	C208.109360,146.342361 208.628326,141.269882 211.317719,139.480911 
	C214.107208,137.625366 219.016647,138.946289 222.999191,138.903549 
	C223.813782,138.894791 224.629608,138.999481 224.782288,139.009293 
	C229.225479,143.153229 226.573746,151.383041 235.034302,153.574448 
	C231.208038,143.024963 227.766205,133.535400 224.088486,123.297478 
M191.911774,131.398972 
	C196.995071,124.013313 194.865997,114.897881 187.010849,113.355309 
	C180.309479,112.039299 173.270355,112.443138 166.130524,112.073227 
	C166.130524,125.413513 166.188782,137.721527 166.091400,150.028320 
	C166.065582,153.288574 167.469055,153.474045 170.220703,152.565094 
	C170.220703,146.599106 170.220703,140.826355 170.220703,136.062454 
	C177.600800,134.611893 184.474808,133.260803 191.911774,131.398972 
M295.973358,141.583908 
	C299.728424,134.806686 303.483490,128.029449 307.243378,121.243507 
	C310.126373,122.736755 312.614960,124.025726 315.881927,125.717880 
	C317.942535,119.263603 310.848846,120.406960 309.707062,116.873230 
	C311.219635,114.039268 312.928833,110.836906 314.811371,107.309761 
	C313.540161,106.607010 312.329559,105.937752 310.952728,105.176590 
	C308.965820,108.645821 307.170532,111.780502 305.251495,115.131279 
	C303.640839,114.382530 302.182404,113.704544 300.582367,112.960732 
	C299.959473,114.104271 299.424438,115.086533 298.820099,116.196022 
	C300.327576,117.230019 301.631866,118.124680 303.114227,119.141457 
	C299.716797,125.288795 296.438721,131.217682 293.162964,137.147858 
	C287.338501,147.692078 287.446777,148.075134 297.947357,153.682434 
	C298.368774,153.907486 298.887695,153.949936 299.659149,154.157700 
	C303.044739,147.720245 294.643799,149.726517 294.198853,145.161118 
	C294.348724,144.852493 294.982666,143.547134 295.973358,141.583908 
z"/>
<path fill="#FDFDFD" opacity="1.000000" stroke="none" 
	d="
M381.399414,108.726799 
	C381.412628,108.276291 381.809875,108.337593 381.909180,108.162872 
	C396.768555,110.452431 411.533539,112.887581 426.286804,115.392052 
	C434.978485,116.867538 443.645691,118.487152 452.334900,119.977692 
	C458.809540,121.088341 460.034668,122.531029 458.913940,129.019257 
	C453.505707,160.329071 448.008057,191.623444 442.548218,222.924362 
	C434.029938,271.759155 425.518280,320.595154 417.000366,369.430023 
	C410.997650,403.844940 405.003265,438.261261 398.967590,472.670380 
	C398.082214,477.717926 396.150360,478.851532 390.264160,477.835144 
	C370.755920,474.466705 351.257568,471.040863 331.754333,467.643402 
	C292.094299,460.734558 252.433380,453.830627 212.773529,446.920807 
	C211.134399,446.635193 209.502136,446.310120 207.471664,445.660950 
	C207.080765,444.972534 207.084885,444.626617 207.089020,444.280640 
	C258.499146,444.245270 309.909332,444.226501 361.319397,444.162018 
	C373.155609,444.147156 380.949341,436.514648 381.358002,424.720886 
	C381.404083,423.391296 381.383331,422.059174 381.381226,420.728210 
	C381.376251,417.567108 381.363892,414.405975 381.619293,410.613647 
	C386.885864,410.648376 391.887665,411.314270 397.209290,412.022766 
	C397.604889,409.566223 397.960052,407.360718 398.355347,404.906128 
	C392.360535,403.696106 386.767456,402.567169 381.174408,401.438232 
	C381.233887,389.696472 381.293365,377.954742 381.551086,365.440918 
	C389.388092,365.782104 397.026855,366.895416 404.832947,368.033081 
	C405.297363,365.477631 405.701263,363.255219 406.140289,360.839630 
	C397.568878,359.255676 389.424957,357.750702 381.281036,356.245728 
	C381.317719,346.551270 381.354431,336.856812 381.590424,326.744812 
	C381.789734,326.327240 381.966705,326.038818 382.386749,326.021606 
	C392.237427,327.530212 401.668060,329.056061 411.471222,330.642212 
	C411.825836,327.841553 412.107391,325.617889 412.394104,323.353577 
	C401.714996,321.348053 391.439514,319.418365 381.164001,317.488647 
	C381.164001,307.515411 381.164001,297.542175 381.164001,286.667053 
	C393.176178,288.762177 404.700745,290.772247 416.868713,292.837311 
	C417.620697,292.597198 417.729370,292.302094 417.838043,292.007019 
	C418.277588,289.940338 418.717163,287.873627 419.236755,285.430481 
	C406.607605,283.320740 394.419495,281.284668 381.354492,279.102081 
	C381.354492,269.626556 381.354492,259.436493 381.620087,248.617188 
	C396.028015,250.256073 410.170349,252.524200 424.581879,254.835510 
	C424.956909,252.188278 425.271423,249.968094 425.621307,247.498291 
	C410.771759,244.886536 396.275482,242.336929 381.753967,239.767517 
	C381.728699,239.747696 381.668579,239.725174 381.668579,239.725174 
	C381.564209,227.239319 381.459869,214.753464 381.632568,201.719543 
	C398.573242,203.979889 415.236908,206.788315 432.372162,209.676208 
	C432.776001,207.062057 433.137604,204.721512 433.521332,202.237518 
	C426.929352,201.087433 420.879883,200.086746 414.852234,198.968552 
	C403.607483,196.882553 392.375427,194.728271 381.138092,192.602402 
	C381.219604,168.958328 381.303009,145.314240 381.380859,121.670151 
	C381.394562,117.505913 381.384979,113.341591 381.399414,108.726799 
z"/>
<path fill="#080808" opacity="1.000000" stroke="none" 
	d="
M381.092834,193.089859 
	C392.375427,194.728271 403.607483,196.882553 414.852234,198.968552 
	C420.879883,200.086746 426.929352,201.087433 433.521332,202.237518 
	C433.137604,204.721512 432.776001,207.062057 432.372162,209.676208 
	C415.236908,206.788315 398.573242,203.979889 381.525055,201.287476 
	C381.109558,198.794754 381.078583,196.186035 381.092834,193.089859 
z"/>
<path fill="#090909" opacity="1.000000" stroke="none" 
	d="
M381.779175,239.787323 
	C396.275482,242.336929 410.771759,244.886536 425.621307,247.498291 
	C425.271423,249.968094 424.956909,252.188278 424.581879,254.835510 
	C410.170349,252.524200 396.028015,250.256073 381.508606,248.184540 
	C381.119690,247.731659 381.107880,247.082184 381.311279,245.667740 
	C381.610718,243.197617 381.694946,241.492477 381.779175,239.787323 
z"/>
<path fill="#090909" opacity="1.000000" stroke="none" 
	d="
M381.112915,317.989136 
	C391.439514,319.418365 401.714996,321.348053 412.394104,323.353577 
	C412.107391,325.617889 411.825836,327.841553 411.471222,330.642212 
	C401.668060,329.056061 392.237427,327.530212 382.343384,325.796631 
	C381.657837,325.221283 381.435730,324.853668 381.213654,324.486023 
	C381.163055,322.487213 381.112427,320.488403 381.112915,317.989136 
z"/>
<path fill="#090909" opacity="1.000000" stroke="none" 
	d="
M381.196106,356.752563 
	C389.424957,357.750702 397.568878,359.255676 406.140289,360.839630 
	C405.701263,363.255219 405.297363,365.477631 404.832947,368.033081 
	C397.026855,366.895416 389.388092,365.782104 381.433533,365.007324 
	C381.115540,362.650330 381.113342,359.954865 381.196106,356.752563 
z"/>
<path fill="#090909" opacity="1.000000" stroke="none" 
	d="
M381.120728,401.936890 
	C386.767456,402.567169 392.360535,403.696106 398.355347,404.906128 
	C397.960052,407.360718 397.604889,409.566223 397.209290,412.022766 
	C391.887665,411.314270 386.885864,410.648376 381.507996,410.180969 
	C381.110260,407.731506 381.088654,405.083527 381.120728,401.936890 
z"/>
<path fill="#323232" opacity="1.000000" stroke="none" 
	d="
M198.273865,444.784821 
	C175.680344,444.723694 153.086807,444.662567 130.196167,444.290955 
	C152.371872,444.013214 174.844696,444.045990 197.811646,444.289734 
	C198.305771,444.500671 198.273865,444.784821 198.273865,444.784821 
z"/>
<path fill="#BDBDBD" opacity="1.000000" stroke="none" 
	d="
M198.682129,444.779327 
	C198.273865,444.784821 198.305771,444.500671 198.293488,444.358215 
	C200.928864,444.157745 203.576508,444.099670 206.656586,444.161133 
	C207.084885,444.626617 207.080765,444.972534 207.066208,445.579590 
	C204.400650,445.485046 201.745514,445.129425 198.682129,444.779327 
z"/>
<path fill="#818181" opacity="1.000000" stroke="none" 
	d="
M381.753937,239.767517 
	C381.694946,241.492477 381.610718,243.197617 381.367737,245.183380 
	C381.308655,243.827255 381.408295,242.190521 381.588257,240.139496 
	C381.668579,239.725174 381.728699,239.747696 381.753937,239.767517 
z"/>
<path fill="#818181" opacity="1.000000" stroke="none" 
	d="
M381.230713,324.788208 
	C381.435730,324.853668 381.657837,325.221283 381.923340,325.813843 
	C381.966705,326.038818 381.789734,326.327240 381.623718,326.294678 
	C381.387726,325.871552 381.317749,325.480988 381.230713,324.788208 
z"/>
<path fill="#090909" opacity="1.000000" stroke="none" 
	d="
M417.668793,292.083313 
	C417.729370,292.302094 417.620697,292.597198 417.265350,292.802795 
	C417.121216,292.478607 417.281494,292.294037 417.668793,292.083313 
z"/>
<path fill="#101010" opacity="1.000000" stroke="none" 
	d="
M196.999390,314.207306 
	C173.204346,314.207275 149.909348,314.207275 126.365875,314.207275 
	C126.365875,311.652466 126.365875,309.392487 126.365875,306.779602 
	C197.052185,306.779602 267.723450,306.779602 338.751282,306.779602 
	C338.751282,309.076782 338.751282,311.460754 338.751282,314.207336 
	C291.674316,314.207336 244.586853,314.207336 196.999390,314.207306 
z"/>
<path fill="#101010" opacity="1.000000" stroke="none" 
	d="
M223.000244,229.435760 
	C261.926910,229.435776 300.353577,229.435776 338.942780,229.435776 
	C338.942780,232.201462 338.942780,234.495193 338.942780,236.998444 
	C268.085907,236.998444 197.383759,236.998444 126.398865,236.998444 
	C126.398865,234.688904 126.398865,232.441513 126.398865,229.435730 
	C158.403076,229.435730 190.451660,229.435730 223.000244,229.435760 
z"/>
<path fill="#101010" opacity="1.000000" stroke="none" 
	d="
M205.999390,191.207306 
	C179.207336,191.207291 152.915329,191.207291 126.370331,191.207291 
	C126.370331,188.654587 126.370331,186.395050 126.370331,183.784073 
	C197.047348,183.784073 267.716827,183.784073 338.747070,183.784073 
	C338.747070,186.070175 338.747070,188.452911 338.747070,191.207321 
	C294.676819,191.207321 250.588120,191.207321 205.999390,191.207306 
z"/>
<path fill="#101010" opacity="1.000000" stroke="none" 
	d="
M327.983643,352.028687 
	C260.554077,352.028687 193.622818,352.028687 126.404175,352.028687 
	C126.404175,349.492462 126.404175,347.253906 126.404175,344.723267 
	C197.155838,344.723267 267.871521,344.723267 338.847382,344.723267 
	C338.847382,347.064758 338.847382,349.309692 338.847382,352.028687 
	C335.398346,352.028687 331.940155,352.028687 327.983643,352.028687 
z"/>
<path fill="#080808" opacity="1.000000" stroke="none" 
	d="
M332.877411,389.149475 
	C335.011963,389.149475 336.663086,389.149475 338.701416,389.149475 
	C338.701416,391.705292 338.701416,394.080444 338.701416,396.746277 
	C268.171326,396.746277 197.453857,396.746277 126.436211,396.746277 
	C126.436211,394.364838 126.436211,391.995483 126.436211,389.149475 
	C195.223755,389.149475 263.808868,389.149475 332.877411,389.149475 
z"/>
<path fill="#080808" opacity="1.000000" stroke="none" 
	d="
M164.000000,267.986572 
	C222.586578,267.986572 280.673157,267.986572 338.924164,267.986572 
	C338.924164,270.697784 338.924164,272.975830 338.924164,275.552612 
	C268.143860,275.552612 197.447647,275.552612 126.443726,275.552612 
	C126.443726,273.231964 126.443726,270.972290 126.443726,267.986572 
	C138.658508,267.986572 151.079254,267.986572 164.000000,267.986572 
z"/>
<path fill="#0E0E0E" opacity="1.000000" stroke="none" 
	d="
M297.691193,98.310638 
	C296.730011,101.976143 294.833374,101.101463 292.442596,100.052444 
	C283.264221,96.025185 277.153351,97.451927 271.729309,104.816521 
	C272.441895,104.952583 273.021545,105.050522 273.595459,105.174736 
	C281.374451,106.858498 285.967712,111.050972 286.992126,117.397224 
	C288.035889,123.863228 283.955750,132.377182 278.214020,135.752014 
	C272.508209,139.105759 267.363892,137.411606 262.460754,133.957687 
	C257.896637,130.742569 255.742554,125.810143 257.470551,120.428207 
	C260.399872,111.304771 265.063904,102.945328 272.626282,96.916275 
	C280.937195,90.290428 289.444153,93.101616 297.691193,98.310638 
M262.401489,119.382866 
	C260.664764,127.207741 264.151947,132.767670 270.930573,132.981552 
	C277.381927,133.185120 283.444244,125.458504 282.461731,118.232292 
	C281.792450,113.309883 278.822510,110.751534 274.051483,109.696426 
	C269.376129,108.662491 266.373993,110.119125 264.781799,114.658844 
	C264.292145,116.055046 263.466919,117.333565 262.401489,119.382866 
z"/>
<path fill="#0F0F0F" opacity="1.000000" stroke="none" 
	d="
M331.944824,119.913620 
	C329.876038,123.716949 327.963196,127.175697 326.081116,130.578796 
	C329.895416,131.399963 333.607727,131.674606 336.883850,133.015244 
	C343.423920,135.691559 345.176300,141.019669 341.859375,147.206757 
	C337.708740,154.948898 333.359222,162.584427 328.875671,170.662094 
	C327.524109,169.940414 326.430298,169.356354 325.221832,168.711090 
	C325.353119,168.193161 325.377899,167.711563 325.586243,167.330261 
	C329.489960,160.186096 333.447601,153.071228 337.325684,145.913239 
	C340.139069,140.720505 338.821014,137.245926 333.092041,135.928589 
	C326.641449,134.445312 323.229919,134.377838 320.071808,141.137009 
	C317.061951,147.578842 313.268921,153.654739 309.706085,160.097839 
	C308.342682,159.322540 307.240479,158.695755 305.753418,157.850143 
	C313.924194,143.053833 321.999878,128.429657 330.283722,113.428581 
	C331.679749,114.088837 332.913116,114.672165 334.330048,115.342308 
	C333.482819,116.948662 332.791779,118.258858 331.944824,119.913620 
z"/>
<path fill="#151515" opacity="1.000000" stroke="none" 
	d="
M150.995453,145.036530 
	C150.199921,142.798553 149.501877,140.950607 148.775726,139.028244 
	C147.650879,138.979050 146.664124,138.907684 145.676697,138.897018 
	C134.047440,138.771423 133.988342,138.752533 130.058716,149.659180 
	C129.166519,152.135452 128.265671,153.930542 124.736519,152.548721 
	C129.306061,139.860931 133.844025,127.137451 138.541534,114.473152 
	C138.883667,113.550819 140.523026,112.369507 141.310822,112.529793 
	C142.433121,112.758118 143.824051,113.928772 144.237869,115.023003 
	C147.934265,124.797134 151.443604,134.642059 155.001892,144.468353 
	C155.961334,147.117844 156.899902,149.774887 157.879456,152.516342 
	C155.175873,153.669647 153.467880,153.187164 152.790833,150.101044 
	C152.438705,148.495972 151.672241,146.981781 150.995453,145.036530 
M141.909958,119.163284 
	C141.720825,119.014915 141.546692,118.832085 141.333389,118.739281 
	C141.269852,118.711647 141.032852,118.912987 140.982605,119.049034 
	C139.049988,124.280998 137.129837,129.517578 135.075867,135.113678 
	C139.438721,135.113678 143.170624,135.113678 147.471130,135.113678 
	C145.586136,129.765747 143.839874,124.811401 141.909958,119.163284 
z"/>
<path fill="#151515" opacity="1.000000" stroke="none" 
	d="
M224.206421,123.671661 
	C227.766205,133.535400 231.208038,143.024963 235.034302,153.574448 
	C226.573746,151.383041 229.225479,143.153229 224.782288,139.009293 
	C224.629608,138.999481 223.813782,138.894791 222.999191,138.903549 
	C219.016647,138.946289 214.107208,137.625366 211.317719,139.480911 
	C208.628326,141.269882 208.109360,146.342361 206.671783,149.986099 
	C205.486328,152.990845 205.508957,152.999771 201.496353,152.502197 
	C206.003235,139.985199 210.448318,127.498123 215.060684,115.073158 
	C215.472504,113.963806 217.155228,112.396118 217.921768,112.560562 
	C219.156937,112.825577 220.512238,114.163521 221.116852,115.392548 
	C222.353561,117.906425 223.125290,120.649048 224.206421,123.671661 
M217.576324,135.365280 
	C219.651871,135.365280 221.727417,135.365280 224.369919,135.365280 
	C222.222260,129.386307 220.341568,124.150581 218.020584,117.689072 
	C215.693848,124.297203 213.848206,129.538986 211.796738,135.365311 
	C213.751572,135.365311 215.206116,135.365311 217.576324,135.365280 
z"/>
<path fill="#1A1A1A" opacity="1.000000" stroke="none" 
	d="
M191.630295,131.654343 
	C184.474808,133.260803 177.600800,134.611893 170.220703,136.062454 
	C170.220703,140.826355 170.220703,146.599106 170.220703,152.565094 
	C167.469055,153.474045 166.065582,153.288574 166.091400,150.028320 
	C166.188782,137.721527 166.130524,125.413513 166.130524,112.073227 
	C173.270355,112.443138 180.309479,112.039299 187.010849,113.355309 
	C194.865997,114.897881 196.995071,124.013313 191.630295,131.654343 
M170.063339,126.408257 
	C170.063339,127.952515 170.063339,129.496765 170.063339,131.112640 
	C174.502838,131.112640 178.141754,131.117310 181.780609,131.108353 
	C182.441757,131.106735 183.104584,131.070679 183.763535,131.014328 
	C187.960052,130.655579 190.520508,128.544052 190.848846,124.202103 
	C191.162338,120.056526 188.675888,116.597313 184.405945,116.216248 
	C179.728043,115.798767 174.984085,116.121223 170.063339,116.121223 
	C170.063339,119.518440 170.063339,122.478195 170.063339,126.408257 
z"/>
<path fill="#101010" opacity="1.000000" stroke="none" 
	d="
M295.794983,141.912842 
	C294.982666,143.547134 294.348724,144.852493 294.198853,145.161118 
	C294.643799,149.726517 303.044739,147.720245 299.659149,154.157700 
	C298.887695,153.949936 298.368774,153.907486 297.947357,153.682434 
	C287.446777,148.075134 287.338501,147.692078 293.162964,137.147858 
	C296.438721,131.217682 299.716797,125.288795 303.114227,119.141457 
	C301.631866,118.124680 300.327576,117.230019 298.820099,116.196022 
	C299.424438,115.086533 299.959473,114.104271 300.582367,112.960732 
	C302.182404,113.704544 303.640839,114.382530 305.251495,115.131279 
	C307.170532,111.780502 308.965820,108.645821 310.952728,105.176590 
	C312.329559,105.937752 313.540161,106.607010 314.811371,107.309761 
	C312.928833,110.836906 311.219635,114.039268 309.707062,116.873230 
	C310.848846,120.406960 317.942535,119.263603 315.881927,125.717880 
	C312.614960,124.025726 310.126373,122.736755 307.243378,121.243507 
	C303.483490,128.029449 299.728424,134.806686 295.794983,141.912842 
z"/>
<path fill="#F9F9F9" opacity="1.000000" stroke="none" 
	d="
M262.598419,119.024414 
	C263.466919,117.333565 264.292145,116.055046 264.781799,114.658844 
	C266.373993,110.119125 269.376129,108.662491 274.051483,109.696426 
	C278.822510,110.751534 281.792450,113.309883 282.461731,118.232292 
	C283.444244,125.458504 277.381927,133.185120 270.930573,132.981552 
	C264.151947,132.767670 260.664764,127.207741 262.598419,119.024414 
z"/>
<path fill="#F4F4F4" opacity="1.000000" stroke="none" 
	d="
M142.001801,119.510178 
	C143.839874,124.811401 145.586136,129.765747 147.471130,135.113678 
	C143.170624,135.113678 139.438721,135.113678 135.075867,135.113678 
	C137.129837,129.517578 139.049988,124.280998 140.982605,119.049034 
	C141.032852,118.912987 141.269852,118.711647 141.333389,118.739281 
	C141.546692,118.832085 141.720825,119.014915 142.001801,119.510178 
z"/>
<path fill="#F4F4F4" opacity="1.000000" stroke="none" 
	d="
M217.118500,135.365295 
	C215.206116,135.365311 213.751572,135.365311 211.796738,135.365311 
	C213.848206,129.538986 215.693848,124.297203 218.020584,117.689072 
	C220.341568,124.150581 222.222260,129.386307 224.369919,135.365280 
	C221.727417,135.365280 219.651871,135.365280 217.118500,135.365295 
z"/>
<path fill="#FDFDFD" opacity="1.000000" stroke="none" 
	d="
M170.063339,125.923096 
	C170.063339,122.478195 170.063339,119.518440 170.063339,116.121223 
	C174.984085,116.121223 179.728043,115.798767 184.405945,116.216248 
	C188.675888,116.597313 191.162338,120.056526 190.848846,124.202103 
	C190.520508,128.544052 187.960052,130.655579 183.763535,131.014328 
	C183.104584,131.070679 182.441757,131.106735 181.780609,131.108353 
	C178.141754,131.117310 174.502838,131.112640 170.063339,131.112640 
	C170.063339,129.496765 170.063339,127.952515 170.063339,125.923096 
z"/>
</svg>