<svg version="1.1" id="Layer_1" xmlns="http://www.w3.org/2000/svg" xmlns:xlink="http://www.w3.org/1999/xlink" x="0px" y="0px"
	 width="100%" viewBox="0 0 500 500" enable-background="new 0 0 500 500" xml:space="preserve">
<path fill="#FEFEFE" opacity="1.000000" stroke="none" 
	d="
M501.000000,119.000000 
	C501.000000,246.666641 501.000000,373.833282 501.000000,500.999939 
	C334.333405,500.999939 167.666809,500.999939 1.000158,500.999969 
	C1.000105,334.333435 1.000105,167.666885 1.000053,1.000247 
	C167.666519,1.000165 334.333038,1.000165 500.999756,1.000082 
	C501.000000,40.166668 501.000000,79.333336 501.000000,119.000000 
M46.501022,11.820337 
	C43.334751,11.820351 40.168480,11.819198 37.002209,11.820573 
	C20.897501,11.827571 11.991422,20.721313 11.991347,36.803165 
	C11.990692,179.116028 11.990599,321.428894 11.991441,463.741760 
	C11.991541,480.660553 20.937742,489.632660 37.809551,489.632965 
	C116.121132,489.634338 194.432709,489.633575 272.744293,489.633575 
	C336.735138,489.633575 400.725983,489.636566 464.716827,489.631561 
	C480.749786,489.630310 490.007294,480.306305 490.007568,464.167572 
	C490.009949,321.854706 489.907318,179.541641 490.178772,37.229305 
	C490.203735,24.139631 481.078094,11.500404 464.862488,11.603583 
	C388.402191,12.090095 311.937134,11.820347 235.473755,11.820339 
	C172.816055,11.820333 110.158363,11.820333 46.501022,11.820337 
z"/>
<path fill="#212625" opacity="1.000000" stroke="none" 
	d="
M47.000843,11.820333 
	C110.158363,11.820333 172.816055,11.820333 235.473755,11.820339 
	C311.937134,11.820347 388.402191,12.090095 464.862488,11.603583 
	C481.078094,11.500404 490.203735,24.139631 490.178772,37.229305 
	C489.907318,179.541641 490.009949,321.854706 490.007568,464.167572 
	C490.007294,480.306305 480.749786,489.630310 464.716827,489.631561 
	C400.725983,489.636566 336.735138,489.633575 272.744293,489.633575 
	C194.432709,489.633575 116.121132,489.634338 37.809551,489.632965 
	C20.937742,489.632660 11.991541,480.660553 11.991441,463.741760 
	C11.990599,321.428894 11.990692,179.116028 11.991347,36.803165 
	C11.991422,20.721313 20.897501,11.827571 37.002209,11.820573 
	C40.168480,11.819198 43.334751,11.820351 47.000843,11.820333 
M336.500000,244.041397 
	C382.573700,244.041397 428.647400,244.041397 475.006012,244.041397 
	C475.006012,241.851456 475.006012,240.213608 475.006012,238.575760 
	C475.006012,171.780289 475.007416,104.984818 475.004456,38.189346 
	C475.004028,28.793642 472.720245,26.539164 463.145477,26.538286 
	C396.516571,26.532185 329.887695,26.535072 263.258789,26.535076 
	C261.490997,26.535076 259.723206,26.535076 257.828552,26.535076 
	C257.828552,99.355446 257.828552,171.531540 257.828552,244.041397 
	C283.913788,244.041397 309.706879,244.041397 336.500000,244.041397 
M260.611328,257.069183 
	C256.057281,256.632812 257.587219,260.097595 257.585297,262.160553 
	C257.521210,331.305420 257.530640,400.450378 257.541626,469.595306 
	C257.541901,471.203094 257.683167,472.810913 257.777435,474.818787 
	C259.971954,474.818787 261.771759,474.818787 263.571564,474.818787 
	C329.884064,474.818787 396.196564,474.819702 462.509064,474.817749 
	C472.639832,474.817474 475.006866,472.408630 475.007050,462.113617 
	C475.008148,395.634491 475.007629,329.155396 475.007629,262.676270 
	C475.007629,260.905945 475.007599,259.135651 475.007599,257.068573 
	C403.492584,257.068573 332.545593,257.068573 260.611328,257.069183 
M39.612106,26.534878 
	C28.968102,26.569542 26.991997,28.505192 26.991838,38.917164 
	C26.990826,105.382942 26.991320,171.848724 26.991318,238.314499 
	C26.991316,240.098465 26.991320,241.882416 26.991320,243.809143 
	C99.658989,243.809143 171.873703,243.809143 244.158875,243.809143 
	C244.158875,171.382751 244.158875,99.189125 244.158875,26.534773 
	C176.097275,26.534773 108.340820,26.534773 39.612106,26.534878 
M177.499924,474.818512 
	C199.623535,474.818512 221.747162,474.818512 244.114990,474.818512 
	C244.114990,402.036316 244.114990,329.706329 244.114990,257.416718 
	C171.557236,257.416718 99.352509,257.416718 26.990011,257.416718 
	C26.990011,259.422668 26.990011,261.082184 26.990011,262.741669 
	C26.990011,329.220825 26.989365,395.699982 26.990692,462.179138 
	C26.990898,472.436554 29.354090,474.817078 39.542862,474.817566 
	C85.195213,474.819672 130.847565,474.818512 177.499924,474.818512 
z"/>
<path fill="#FFFFFF" opacity="1.000000" stroke="none" 
	d="
M336.000000,244.041397 
	C309.706879,244.041397 283.913788,244.041397 257.828552,244.041397 
	C257.828552,171.531540 257.828552,99.355446 257.828552,26.535076 
	C259.723206,26.535076 261.490997,26.535076 263.258789,26.535076 
	C329.887695,26.535072 396.516571,26.532185 463.145477,26.538286 
	C472.720245,26.539164 475.004028,28.793642 475.004456,38.189346 
	C475.007416,104.984818 475.006012,171.780289 475.006012,238.575760 
	C475.006012,240.213608 475.006012,241.851456 475.006012,244.041397 
	C428.647400,244.041397 382.573700,244.041397 336.000000,244.041397 
M298.724670,138.985596 
	C290.933105,139.112900 287.265442,142.355118 287.886932,148.566147 
	C288.385040,153.544006 291.512695,155.530319 299.119415,155.533096 
	C340.731842,155.548370 382.344238,155.546173 423.956665,155.519241 
	C425.772461,155.518066 427.646118,155.447006 429.392731,155.009262 
	C434.267273,153.787552 436.838654,148.635162 434.853424,144.062866 
	C432.991180,139.773804 429.377075,138.922302 425.008850,138.931717 
	C383.230194,139.021866 341.451263,138.985611 298.724670,138.985596 
z"/>
<path fill="#FEFEFE" opacity="1.000000" stroke="none" 
	d="
M261.104980,257.068878 
	C332.545593,257.068573 403.492584,257.068573 475.007599,257.068573 
	C475.007599,259.135651 475.007629,260.905945 475.007629,262.676270 
	C475.007629,329.155396 475.008148,395.634491 475.007050,462.113617 
	C475.006866,472.408630 472.639832,474.817474 462.509064,474.817749 
	C396.196564,474.819702 329.884064,474.818787 263.571564,474.818787 
	C261.771759,474.818787 259.971954,474.818787 257.777435,474.818787 
	C257.683167,472.810913 257.541901,471.203094 257.541626,469.595306 
	C257.530640,400.450378 257.521210,331.305420 257.585297,262.160553 
	C257.587219,260.097595 256.057281,256.632812 261.104980,257.068878 
M436.454681,364.845154 
	C435.781250,359.756500 432.571869,357.920624 427.778870,357.922668 
	C383.614899,357.941620 339.450928,357.918304 295.286987,357.955750 
	C289.713989,357.960480 286.831116,360.867004 286.846741,366.065247 
	C286.863190,371.540802 289.439209,374.058441 295.239899,374.060699 
	C339.237213,374.077789 383.234558,374.080261 427.231873,374.056061 
	C433.502106,374.052612 435.598633,372.072479 436.454681,364.845154 
M357.640198,306.909668 
	C356.308929,306.925903 354.975189,306.895966 353.646790,306.966492 
	C348.341400,307.248199 344.660980,310.793030 344.200439,316.025146 
	C343.778961,320.813690 346.815063,325.895691 351.704956,326.240326 
	C360.280487,326.844727 368.969757,326.843842 377.537781,326.166199 
	C382.644836,325.762299 385.530518,320.646179 384.962891,315.490692 
	C384.429993,310.650635 380.679596,307.122131 375.581146,306.987610 
	C369.925659,306.838379 364.263977,306.925476 357.640198,306.909668 
M381.035858,410.316101 
	C379.324188,409.769348 377.622925,408.791901 375.899048,408.750305 
	C368.424713,408.569885 360.938721,408.491699 353.466919,408.712677 
	C347.945984,408.875977 344.075806,413.147552 344.153717,418.359772 
	C344.237457,423.960510 348.154480,427.925720 353.961334,428.026428 
	C360.607819,428.141754 367.260681,427.949127 373.904755,428.121857 
	C378.469604,428.240540 382.074524,426.901276 384.052094,422.580078 
	C386.093994,418.118317 385.039337,414.201660 381.035858,410.316101 
z"/>
<path fill="#FFFFFF" opacity="1.000000" stroke="none" 
	d="
M40.098232,26.534824 
	C108.340820,26.534773 176.097275,26.534773 244.158875,26.534773 
	C244.158875,99.189125 244.158875,171.382751 244.158875,243.809143 
	C171.873703,243.809143 99.658989,243.809143 26.991320,243.809143 
	C26.991320,241.882416 26.991316,240.098465 26.991318,238.314499 
	C26.991320,171.848724 26.990826,105.382942 26.991838,38.917164 
	C26.991997,28.505192 28.968102,26.569542 40.098232,26.534824 
M67.937912,153.682251 
	C70.802582,154.302444 73.661880,155.428711 76.532799,155.459137 
	C92.854469,155.632172 109.179741,155.630493 125.501801,155.477203 
	C129.179169,155.442673 130.398117,156.583252 130.358307,160.323502 
	C130.184540,176.645157 130.261993,192.969772 130.310410,209.293137 
	C130.316772,211.438477 130.426437,213.645523 130.934891,215.714218 
	C131.933121,219.775528 134.867477,221.831238 138.931442,221.923477 
	C143.064102,222.017288 145.916306,219.856415 147.063843,215.893631 
	C147.608215,214.013687 147.739517,211.961685 147.745697,209.986633 
	C147.796814,193.663300 147.939178,177.336975 147.668015,161.017975 
	C147.593002,156.504349 149.048080,155.395111 153.343353,155.454224 
	C169.497238,155.676468 185.656052,155.566696 201.812927,155.532562 
	C209.126129,155.517120 213.153839,152.401047 212.980545,147.047226 
	C212.808746,141.739410 209.092255,138.991852 202.012924,138.987381 
	C186.189117,138.977402 170.365311,138.985367 154.541504,138.983734 
	C147.780792,138.983047 147.776901,138.980469 147.775558,132.111450 
	C147.772324,115.454811 147.845535,98.797707 147.737381,82.141769 
	C147.692657,75.251381 142.667908,71.111992 136.823914,72.821938 
	C131.880157,74.268478 130.249512,77.863335 130.264343,82.697495 
	C130.316498,99.687103 130.178238,116.678101 130.358871,133.665939 
	C130.402817,137.797363 129.119202,139.126129 124.928528,139.072296 
	C108.274635,138.858353 91.615997,139.045502 74.960037,138.938690 
	C71.102737,138.913971 68.043800,140.054733 66.194733,143.460831 
	C64.341148,146.875259 64.722717,150.195023 67.937912,153.682251 
z"/>
<path fill="#FEFEFE" opacity="1.000000" stroke="none" 
	d="
M176.999908,474.818512 
	C130.847565,474.818512 85.195213,474.819672 39.542862,474.817566 
	C29.354090,474.817078 26.990898,472.436554 26.990692,462.179138 
	C26.989365,395.699982 26.990011,329.220825 26.990011,262.741669 
	C26.990011,261.082184 26.990011,259.422668 26.990011,257.416718 
	C99.352509,257.416718 171.557236,257.416718 244.114990,257.416718 
	C244.114990,329.706329 244.114990,402.036316 244.114990,474.818512 
	C221.747162,474.818512 199.623535,474.818512 176.999908,474.818512 
M190.446838,417.080048 
	C196.335938,417.558380 199.656036,415.821411 201.293884,411.459259 
	C203.036331,406.818420 200.911453,403.464691 197.779129,400.339691 
	C183.740494,386.333954 169.804855,372.223907 155.659225,358.327423 
	C152.756592,355.475891 152.520111,353.729309 155.562775,350.749908 
	C169.492538,337.109711 183.207428,323.249695 196.952011,309.421387 
	C198.458603,307.905640 199.972244,306.247986 200.939011,304.375488 
	C202.954346,300.472046 201.838577,296.847534 198.795242,293.976715 
	C195.819031,291.169220 192.209854,290.898560 188.678680,292.847595 
	C186.969070,293.791229 185.487839,295.234558 184.084091,296.633209 
	C170.390778,310.276825 156.646500,323.871613 143.137787,337.696350 
	C140.075638,340.830109 138.244873,340.832245 135.181747,337.710052 
	C121.762047,324.031616 108.113525,310.577423 94.511665,297.078522 
	C92.986977,295.565369 91.410576,293.508453 89.541382,293.077362 
	C86.710320,292.424561 82.902809,291.916504 80.796646,293.302246 
	C78.455322,294.842682 76.455994,298.540161 76.363426,301.365906 
	C76.283028,303.820007 78.661911,306.768188 80.658218,308.809174 
	C92.892410,321.317322 105.326027,333.630432 117.695236,346.006470 
	C126.185478,354.501434 126.187187,354.500244 117.671562,363.016388 
	C105.063675,375.625092 92.404892,388.183502 79.870552,400.864899 
	C74.370705,406.429260 74.924408,412.782593 80.933510,416.294098 
	C84.696877,418.493225 88.953659,417.450043 93.327812,413.103943 
	C107.276535,399.244751 121.289894,385.448029 135.052231,371.405609 
	C138.316742,368.074677 140.190750,368.268341 143.369629,371.537170 
	C156.496613,385.035187 169.891586,398.273407 183.249863,411.544922 
	C185.238541,413.520752 187.557159,415.164520 190.446838,417.080048 
z"/>
<path fill="#232726" opacity="1.000000" stroke="none" 
	d="
M299.198547,138.985596 
	C341.451263,138.985611 383.230194,139.021866 425.008850,138.931717 
	C429.377075,138.922302 432.991180,139.773804 434.853424,144.062866 
	C436.838654,148.635162 434.267273,153.787552 429.392731,155.009262 
	C427.646118,155.447006 425.772461,155.518066 423.956665,155.519241 
	C382.344238,155.546173 340.731842,155.548370 299.119415,155.533096 
	C291.512695,155.530319 288.385040,153.544006 287.886932,148.566147 
	C287.265442,142.355118 290.933105,139.112900 299.198547,138.985596 
z"/>
<path fill="#030404" opacity="1.000000" stroke="none" 
	d="
M436.509369,365.222961 
	C435.598633,372.072479 433.502106,374.052612 427.231873,374.056061 
	C383.234558,374.080261 339.237213,374.077789 295.239899,374.060699 
	C289.439209,374.058441 286.863190,371.540802 286.846741,366.065247 
	C286.831116,360.867004 289.713989,357.960480 295.286987,357.955750 
	C339.450928,357.918304 383.614899,357.941620 427.778870,357.922668 
	C432.571869,357.920624 435.781250,359.756500 436.509369,365.222961 
M412.498169,360.992188 
	C374.860840,360.992218 337.223480,360.992126 299.586151,360.992889 
	C298.253876,360.992889 296.914978,360.917297 295.590668,361.022156 
	C292.270782,361.285156 289.723022,362.381805 289.992493,366.434113 
	C290.238922,370.139679 292.523621,371.028778 295.782806,371.026489 
	C339.582031,370.995636 383.381256,370.993195 427.180450,371.029907 
	C430.720306,371.032867 432.979950,369.957092 433.029938,365.991486 
	C433.078461,362.142548 430.506927,361.170166 427.484070,361.052887 
	C422.827911,360.872253 418.159882,360.997009 412.498169,360.992188 
z"/>
<path fill="#0C0D0D" opacity="1.000000" stroke="none" 
	d="
M358.122589,306.909668 
	C364.263977,306.925476 369.925659,306.838379 375.581146,306.987610 
	C380.679596,307.122131 384.429993,310.650635 384.962891,315.490692 
	C385.530518,320.646179 382.644836,325.762299 377.537781,326.166199 
	C368.969757,326.843842 360.280487,326.844727 351.704956,326.240326 
	C346.815063,325.895691 343.778961,320.813690 344.200439,316.025146 
	C344.660980,310.793030 348.341400,307.248199 353.646790,306.966492 
	C354.975189,306.895966 356.308929,306.925903 358.122589,306.909668 
M359.624329,310.006104 
	C357.795197,310.013885 355.938049,309.820618 354.142700,310.070831 
	C350.250092,310.613312 347.748810,312.442963 347.950989,316.935944 
	C348.152039,321.403473 350.470428,323.076874 354.674622,323.030945 
	C361.159210,322.960083 367.645569,323.056702 374.130432,322.999359 
	C378.617218,322.959686 382.319794,319.952057 381.771057,316.388153 
	C381.136078,312.264343 378.265533,310.102081 374.060883,310.027832 
	C369.572388,309.948578 365.081421,310.007507 359.624329,310.006104 
z"/>
<path fill="#080909" opacity="1.000000" stroke="none" 
	d="
M381.327576,410.568848 
	C385.039337,414.201660 386.093994,418.118317 384.052094,422.580078 
	C382.074524,426.901276 378.469604,428.240540 373.904755,428.121857 
	C367.260681,427.949127 360.607819,428.141754 353.961334,428.026428 
	C348.154480,427.925720 344.237457,423.960510 344.153717,418.359772 
	C344.075806,413.147552 347.945984,408.875977 353.466919,408.712677 
	C360.938721,408.491699 368.424713,408.569885 375.899048,408.750305 
	C377.622925,408.791901 379.324188,409.769348 381.327576,410.568848 
M379.350647,423.100281 
	C382.132477,420.768188 382.349792,417.674591 380.368195,415.180267 
	C379.063782,413.538239 376.396942,412.260803 374.260803,412.131592 
	C367.804626,411.741028 361.309509,412.026703 354.830078,411.977600 
	C350.671417,411.946106 348.213348,413.743652 347.996796,418.049438 
	C347.783203,422.296448 349.999084,424.768127 354.599060,424.940491 
	C359.908478,425.139465 365.236908,425.147644 370.544952,424.935516 
	C373.286987,424.825928 376.002777,424.059967 379.350647,423.100281 
z"/>
<path fill="#232827" opacity="1.000000" stroke="none" 
	d="
M67.648827,153.419693 
	C64.722717,150.195023 64.341148,146.875259 66.194733,143.460831 
	C68.043800,140.054733 71.102737,138.913971 74.960037,138.938690 
	C91.615997,139.045502 108.274635,138.858353 124.928528,139.072296 
	C129.119202,139.126129 130.402817,137.797363 130.358871,133.665939 
	C130.178238,116.678101 130.316498,99.687103 130.264343,82.697495 
	C130.249512,77.863335 131.880157,74.268478 136.823914,72.821938 
	C142.667908,71.111992 147.692657,75.251381 147.737381,82.141769 
	C147.845535,98.797707 147.772324,115.454811 147.775558,132.111450 
	C147.776901,138.980469 147.780792,138.983047 154.541504,138.983734 
	C170.365311,138.985367 186.189117,138.977402 202.012924,138.987381 
	C209.092255,138.991852 212.808746,141.739410 212.980545,147.047226 
	C213.153839,152.401047 209.126129,155.517120 201.812927,155.532562 
	C185.656052,155.566696 169.497238,155.676468 153.343353,155.454224 
	C149.048080,155.395111 147.593002,156.504349 147.668015,161.017975 
	C147.939178,177.336975 147.796814,193.663300 147.745697,209.986633 
	C147.739517,211.961685 147.608215,214.013687 147.063843,215.893631 
	C145.916306,219.856415 143.064102,222.017288 138.931442,221.923477 
	C134.867477,221.831238 131.933121,219.775528 130.934891,215.714218 
	C130.426437,213.645523 130.316772,211.438477 130.310410,209.293137 
	C130.261993,192.969772 130.184540,176.645157 130.358307,160.323502 
	C130.398117,156.583252 129.179169,155.442673 125.501801,155.477203 
	C109.179741,155.630493 92.854469,155.632172 76.532799,155.459137 
	C73.661880,155.428711 70.802582,154.302444 67.648827,153.419693 
z"/>
<path fill="#1F2423" opacity="1.000000" stroke="none" 
	d="
M190.084991,417.020966 
	C187.557159,415.164520 185.238541,413.520752 183.249863,411.544922 
	C169.891586,398.273407 156.496613,385.035187 143.369629,371.537170 
	C140.190750,368.268341 138.316742,368.074677 135.052231,371.405609 
	C121.289894,385.448029 107.276535,399.244751 93.327812,413.103943 
	C88.953659,417.450043 84.696877,418.493225 80.933510,416.294098 
	C74.924408,412.782593 74.370705,406.429260 79.870552,400.864899 
	C92.404892,388.183502 105.063675,375.625092 117.671562,363.016388 
	C126.187187,354.500244 126.185478,354.501434 117.695236,346.006470 
	C105.326027,333.630432 92.892410,321.317322 80.658218,308.809174 
	C78.661911,306.768188 76.283028,303.820007 76.363426,301.365906 
	C76.455994,298.540161 78.455322,294.842682 80.796646,293.302246 
	C82.902809,291.916504 86.710320,292.424561 89.541382,293.077362 
	C91.410576,293.508453 92.986977,295.565369 94.511665,297.078522 
	C108.113525,310.577423 121.762047,324.031616 135.181747,337.710052 
	C138.244873,340.832245 140.075638,340.830109 143.137787,337.696350 
	C156.646500,323.871613 170.390778,310.276825 184.084091,296.633209 
	C185.487839,295.234558 186.969070,293.791229 188.678680,292.847595 
	C192.209854,290.898560 195.819031,291.169220 198.795242,293.976715 
	C201.838577,296.847534 202.954346,300.472046 200.939011,304.375488 
	C199.972244,306.247986 198.458603,307.905640 196.952011,309.421387 
	C183.207428,323.249695 169.492538,337.109711 155.562775,350.749908 
	C152.520111,353.729309 152.756592,355.475891 155.659225,358.327423 
	C169.804855,372.223907 183.740494,386.333954 197.779129,400.339691 
	C200.911453,403.464691 203.036331,406.818420 201.293884,411.459259 
	C199.656036,415.821411 196.335938,417.558380 190.084991,417.020966 
z"/>
<path fill="#1C2120" opacity="1.000000" stroke="none" 
	d="
M412.997528,360.992188 
	C418.159882,360.997009 422.827911,360.872253 427.484070,361.052887 
	C430.506927,361.170166 433.078461,362.142548 433.029938,365.991486 
	C432.979950,369.957092 430.720306,371.032867 427.180450,371.029907 
	C383.381256,370.993195 339.582031,370.995636 295.782806,371.026489 
	C292.523621,371.028778 290.238922,370.139679 289.992493,366.434113 
	C289.723022,362.381805 292.270782,361.285156 295.590668,361.022156 
	C296.914978,360.917297 298.253876,360.992889 299.586151,360.992889 
	C337.223480,360.992126 374.860840,360.992218 412.997528,360.992188 
z"/>
<path fill="#1B201F" opacity="1.000000" stroke="none" 
	d="
M360.107941,310.006104 
	C365.081421,310.007507 369.572388,309.948578 374.060883,310.027832 
	C378.265533,310.102081 381.136078,312.264343 381.771057,316.388153 
	C382.319794,319.952057 378.617218,322.959686 374.130432,322.999359 
	C367.645569,323.056702 361.159210,322.960083 354.674622,323.030945 
	C350.470428,323.076874 348.152039,321.403473 347.950989,316.935944 
	C347.748810,312.442963 350.250092,310.613312 354.142700,310.070831 
	C355.938049,309.820618 357.795197,310.013885 360.107941,310.006104 
z"/>
<path fill="#1C2120" opacity="1.000000" stroke="none" 
	d="
M379.040527,423.345428 
	C376.002777,424.059967 373.286987,424.825928 370.544952,424.935516 
	C365.236908,425.147644 359.908478,425.139465 354.599060,424.940491 
	C349.999084,424.768127 347.783203,422.296448 347.996796,418.049438 
	C348.213348,413.743652 350.671417,411.946106 354.830078,411.977600 
	C361.309509,412.026703 367.804626,411.741028 374.260803,412.131592 
	C376.396942,412.260803 379.063782,413.538239 380.368195,415.180267 
	C382.349792,417.674591 382.132477,420.768188 379.040527,423.345428 
z"/>
</svg>