<svg version="1.1" id="Layer_1" xmlns="http://www.w3.org/2000/svg" xmlns:xlink="http://www.w3.org/1999/xlink" x="0px" y="0px"
	 width="100%" viewBox="0 0 496 496" enable-background="new 0 0 496 496" xml:space="preserve">
<path fill="#000000" opacity="1.000000" stroke="none" 
	d="
M1.000000,404.000000 
	C1.000000,302.311890 1.000000,200.623810 1.283235,98.296036 
	C3.065604,96.347755 4.648637,95.122917 6.051466,93.718132 
	C33.644215,66.086945 61.224968,38.443760 88.779900,10.774860 
	C91.939362,7.602321 94.930702,4.262341 98.000000,0.999999 
	C199.688095,1.000000 301.376190,1.000000 403.683838,1.295074 
	C405.066620,2.466811 405.780518,3.392741 406.600189,4.212961 
	C429.803955,27.431501 452.959930,50.698318 476.267242,73.812531 
	C483.114136,80.602699 489.398590,87.982231 497.000000,94.000000 
	C497.000000,198.354767 497.000000,302.709534 496.707855,407.692322 
	C495.158203,409.405609 493.824127,410.414490 492.654327,411.587189 
	C465.757782,438.551056 438.880035,465.533691 411.994385,492.508453 
	C410.695618,493.811523 409.388062,495.095795 409.000000,497.000000 
	C304.311890,497.000000 199.623810,497.000000 94.292351,496.716797 
	C93.122772,495.789368 92.647453,495.094421 92.063057,494.508240 
	C63.012741,465.369598 33.957710,436.235626 4.877728,407.126587 
	C3.710985,405.958679 2.298160,405.036621 1.000000,404.000000 
M485.626160,313.500183 
	C485.626068,246.516800 485.579071,179.533295 485.725494,112.550240 
	C485.735901,107.799316 484.283783,104.494957 480.956390,101.191124 
	C453.762207,74.188889 426.707611,47.045780 399.682526,19.873945 
	C397.275421,17.453789 394.764740,16.347218 391.319550,16.349802 
	C297.842255,16.419918 204.364944,16.419849 110.887657,16.372066 
	C107.673767,16.370422 105.139511,17.243740 102.849464,19.541246 
	C75.090286,47.390934 47.292862,75.202568 19.465673,102.984314 
	C17.177893,105.268356 16.326780,107.801956 16.328814,111.026505 
	C16.387596,204.337158 16.389294,297.647827 16.316259,390.958496 
	C16.313570,394.395203 17.333126,396.946045 19.751713,399.355530 
	C47.371048,426.871063 74.949646,454.427734 102.444710,482.067322 
	C105.006187,484.642334 107.651184,485.681824 111.255913,485.678955 
	C204.399918,485.604156 297.544006,485.602966 390.688019,485.679443 
	C394.299469,485.682404 396.987122,484.644531 399.531586,482.090759 
	C426.932343,454.589478 454.389587,427.144318 481.907532,399.760254 
	C484.585144,397.095673 485.714905,394.284210 485.694794,390.481415 
	C485.560822,365.154938 485.625702,339.827393 485.626160,313.500183 
z"/>
<path fill="#000000" opacity="1.000000" stroke="none" 
	d="
M142.452408,198.184692 
	C147.610214,189.590424 154.506912,183.257233 162.615509,178.036530 
	C165.548813,176.147919 168.448776,175.018631 171.922379,175.100037 
	C176.085312,175.197647 180.301727,175.531555 184.409485,175.043457 
	C205.911835,172.488449 216.406296,186.878265 226.470108,202.019669 
	C227.342484,203.332199 227.287750,204.877747 227.293808,206.377914 
	C227.309265,210.209915 226.999374,214.071411 227.365356,217.868500 
	C228.428268,228.896332 226.908844,239.040451 218.669342,247.297668 
	C216.268967,249.703201 216.270966,252.444153 218.672760,254.804962 
	C226.882706,262.874725 228.503784,272.849915 227.316772,283.697632 
	C227.280746,284.026947 227.272797,284.368866 227.317093,284.696045 
	C229.438004,300.362488 220.951370,310.513885 209.755219,319.635864 
	C203.054398,325.095245 195.996323,328.067352 187.332230,326.925751 
	C185.531021,326.688416 183.644165,326.690186 181.842804,326.929016 
	C165.287201,329.124023 154.522919,320.380585 145.572021,307.994629 
	C143.863083,305.629883 142.579880,302.810730 139.873596,301.176331 
	C137.148605,302.749634 135.898483,305.361450 134.208527,307.571777 
	C131.490799,311.126282 128.908615,314.684448 125.479332,317.748657 
	C117.282242,325.073029 108.096443,328.452362 97.156357,326.949188 
	C95.848114,326.769440 94.474785,326.776672 93.163918,326.946533 
	C77.924156,328.920929 68.432869,320.113861 59.557060,309.572815 
	C54.078407,303.066315 51.429543,296.078400 52.581257,287.611694 
	C52.892792,285.321503 52.863705,282.924744 52.587620,280.625305 
	C51.415443,270.862671 53.503010,262.191467 60.566227,255.005356 
	C63.090992,252.436661 63.152607,249.558838 60.645512,247.044891 
	C53.201492,239.580582 51.491714,230.477478 52.609356,220.459854 
	C52.756241,219.143311 52.769581,217.779236 52.609226,216.465942 
	C50.078815,195.741562 64.216751,185.768600 78.742371,176.143570 
	C80.131630,175.222992 82.269432,175.234573 84.071800,175.174301 
	C88.399338,175.029648 92.789528,175.541351 97.056152,175.005554 
	C114.209129,172.851501 125.358688,181.766373 134.468781,194.709869 
	C135.427292,196.071732 136.441010,197.395035 137.387375,198.765076 
	C139.202789,201.393204 140.787140,200.906769 142.452408,198.184692 
M116.616417,214.514496 
	C115.777664,206.444931 116.861732,198.877655 123.458046,192.790115 
	C104.379646,201.678238 86.480362,202.731140 68.325188,191.987701 
	C76.972534,199.132385 76.918053,208.781647 76.304092,218.594315 
	C76.252205,219.423630 76.201492,220.272232 76.313065,221.089630 
	C77.625664,230.706207 75.291023,239.164993 68.442726,246.224411 
	C65.342888,249.419800 65.412560,252.632416 68.481270,255.808472 
	C75.309044,262.875183 77.657173,271.321930 76.326157,280.945740 
	C76.145393,282.252777 76.166603,283.623047 76.325462,284.936066 
	C77.456818,294.287323 75.699516,302.755981 68.967499,309.773254 
	C68.814041,309.933228 68.906166,310.328827 68.797569,311.712402 
	C76.362549,302.291260 86.223351,302.920685 96.146103,302.944611 
	C106.045357,302.968475 115.944214,302.178009 123.918213,310.772003 
	C114.026421,301.786560 117.310989,290.341064 116.488930,279.670349 
	C115.770439,270.344025 117.617271,262.249756 124.222427,255.465210 
	C127.050644,252.560135 127.078285,249.506485 124.313156,246.675217 
	C117.239868,239.432724 115.466042,230.688385 116.585922,221.000961 
	C116.794891,219.193283 116.618057,217.341019 116.616417,214.514496 
M206.247528,194.178650 
	C203.521744,195.696655 201.405518,198.690445 198.002960,198.547592 
	C184.528687,197.981995 170.307709,202.803253 158.028824,193.222702 
	C157.967453,193.174835 157.750504,193.326355 156.885605,193.676437 
	C165.240433,201.313156 163.219299,211.257599 163.320557,220.758514 
	C163.327652,221.424927 163.243790,222.101700 163.331024,222.756485 
	C164.474548,231.340530 162.366333,238.867203 156.182831,245.113327 
	C152.131149,249.206039 152.487183,253.209473 156.412277,257.215240 
	C162.123337,263.043610 164.523483,270.003265 163.353241,278.145111 
	C163.212433,279.124756 163.340485,280.141998 163.330322,281.141663 
	C163.228638,291.146057 165.484283,301.717865 155.862411,309.271088 
	C174.634918,299.986572 192.697891,299.495117 211.100739,309.830994 
	C202.811249,303.118500 203.102371,293.918091 203.575119,284.652161 
	C203.668396,282.824066 203.785583,280.961578 203.553574,279.158478 
	C202.403580,270.221588 204.540146,262.400787 210.981094,255.887375 
	C214.047821,252.786148 214.250473,249.564774 211.096313,246.289581 
	C204.680740,239.627808 202.371338,231.658844 203.555466,222.547592 
	C203.789719,220.745178 203.666153,218.882324 203.575165,217.053940 
	C203.149567,208.501343 202.993088,200.032074 209.540924,193.220306 
	C209.648819,193.108078 209.413788,192.666199 209.280746,192.155304 
	C208.404739,192.750015 207.593506,193.300766 206.247528,194.178650 
M136.583237,261.717987 
	C137.704361,262.798035 138.202148,264.719147 140.774963,264.474579 
	C143.218506,261.099792 145.843338,257.508514 148.427643,253.888290 
	C149.430511,252.483414 150.152374,250.876190 149.067520,249.277924 
	C146.229340,245.096603 143.666153,240.684692 140.227036,237.218826 
	C138.299835,237.717484 137.683914,238.973984 136.874222,239.980560 
	C128.570419,250.303146 128.576233,250.307831 136.583237,261.717987 
z"/>
<path fill="#000000" opacity="1.000000" stroke="none" 
	d="
M278.514801,240.352692 
	C275.464417,236.901566 274.441406,233.227737 274.698334,229.003174 
	C274.920349,225.352814 275.084656,221.634949 274.657898,218.019699 
	C272.158356,196.845673 286.020508,186.123886 301.174072,176.240982 
	C302.338867,175.481308 304.040955,175.290405 305.497833,175.275375 
	C314.324188,175.184296 323.151825,175.228668 331.979034,175.210815 
	C334.604340,175.205521 336.750336,176.343796 338.882782,177.748611 
	C346.737183,182.922958 353.925171,188.738068 358.721039,197.063293 
	C359.524994,198.458878 360.362213,199.994385 362.215973,200.626602 
	C364.706207,199.699799 365.887054,197.318161 367.067413,195.268387 
	C371.738800,187.156052 379.224487,182.209152 386.635162,177.107376 
	C388.665405,175.709686 390.865112,175.212631 393.230103,175.190598 
	C397.893463,175.147186 402.609528,175.599304 407.211945,175.061005 
	C428.252258,172.600143 438.687317,186.540588 448.619263,201.390259 
	C449.865479,213.131729 450.414520,224.970657 448.320526,236.560944 
	C447.595245,240.575455 443.586548,244.075058 440.829254,247.616547 
	C439.003784,249.961182 438.611816,252.032166 440.786652,254.198792 
	C448.743561,262.125580 450.698242,271.842743 449.397247,282.577942 
	C449.238098,283.891205 449.219452,285.261871 449.399414,286.569641 
	C451.473297,301.642609 442.695129,310.906677 432.325745,319.704895 
	C425.510803,325.487274 418.124878,327.963776 409.381836,326.928986 
	C408.232330,326.792969 407.032654,326.778778 405.889099,326.940643 
	C388.440521,329.410370 376.831116,320.639740 367.553162,307.207520 
	C366.074615,305.066925 364.956818,302.548370 362.370941,300.987640 
	C359.416107,302.806763 357.801544,305.802429 356.136627,308.552582 
	C351.451843,316.291168 344.418274,322.462769 336.669861,325.133118 
	C325.287018,329.055969 312.256989,329.238525 300.928375,325.175934 
	C289.688019,321.144989 280.633514,311.714020 276.526855,300.624146 
	C272.364380,289.383453 273.401398,276.720581 276.385040,264.874634 
	C277.255951,261.416962 280.434357,258.421783 282.911926,255.519150 
	C285.695251,252.258286 285.633698,249.449036 282.819489,246.319534 
	C281.271027,244.597626 280.084381,242.550385 278.514801,240.352692 
M426.830750,195.491272 
	C425.221558,196.663757 423.712860,198.466476 421.682861,198.376495 
	C408.384918,197.787079 394.391083,203.082092 382.076233,193.855652 
	C381.572937,193.478592 380.927551,193.158890 380.264862,193.662292 
	C385.377716,205.190613 385.377747,205.190613 385.376404,219.675766 
	C385.376312,220.508698 385.276398,221.355667 385.391357,222.172409 
	C386.695679,231.438828 384.432037,239.596512 377.867554,246.401108 
	C374.909271,249.467560 374.844269,252.491211 377.814087,255.542816 
	C384.427490,262.338409 386.660950,270.484863 385.391510,279.753815 
	C385.234802,280.898163 385.358459,282.083344 385.378937,283.249146 
	C385.538696,292.344604 386.613525,301.653992 379.313629,308.997131 
	C379.270233,309.040771 379.413605,309.270111 379.285309,308.944305 
	C397.178040,300.184570 414.888824,299.719666 433.007477,309.242065 
	C425.196869,302.467712 425.127014,293.517487 425.680298,284.379730 
	C425.780792,282.720032 425.878021,281.024353 425.660950,279.387115 
	C424.495758,270.598297 426.766022,262.918396 433.045715,256.610138 
	C436.838470,252.800095 436.521667,249.429810 433.188568,245.374588 
	C430.272095,241.826294 425.899139,238.291489 426.026337,233.642075 
	C426.415070,219.432556 421.407074,204.113708 433.277588,191.862045 
	C433.338593,191.799057 433.242584,191.583908 433.182709,191.203705 
	C431.211182,192.537369 429.319885,193.816727 426.830750,195.491272 
M344.363739,192.510208 
	C327.998657,203.569290 311.051849,199.835571 293.370331,194.768311 
	C300.896790,202.336624 297.817352,211.837219 298.404785,220.727203 
	C298.426697,221.058838 298.372162,221.397461 298.412018,221.725708 
	C299.547455,231.081848 297.745819,239.491760 290.846405,246.433670 
	C287.898712,249.399521 288.048401,252.617783 290.947235,255.675064 
	C297.294830,262.369629 299.658936,270.300079 298.447296,279.412384 
	C298.186157,281.376282 298.295227,283.412018 298.427856,285.401733 
	C298.989807,293.832825 298.795807,302.042023 292.403595,308.672729 
	C292.277466,308.803558 292.473145,309.244629 292.414551,308.863434 
	C310.128174,300.270966 327.722961,299.687622 345.875763,309.315460 
	C338.558899,302.482544 338.733215,293.714630 338.488831,284.619049 
	C338.184021,273.273590 338.944763,262.756927 347.615967,254.298798 
	C349.717377,252.249023 349.803406,249.766052 347.659302,247.669159 
	C339.016907,239.217010 337.575531,228.705963 338.675964,217.371887 
	C338.916260,214.896957 338.885223,212.364243 338.675964,209.883728 
	C338.262146,204.978973 339.536865,200.775543 342.708588,196.932922 
	C343.675690,195.761276 345.986481,194.693115 344.363739,192.510208 
M363.005798,237.484268 
	C357.340576,240.074905 353.560486,245.576950 353.004852,250.550293 
	C352.373474,256.201447 358.343475,260.452332 362.063904,264.971161 
	C373.651031,254.146744 373.920654,251.826553 365.355103,240.128052 
	C364.768127,239.326401 364.118988,238.570282 363.005798,237.484268 
z"/>
<path fill="#000000" opacity="1.000000" stroke="none" 
	d="
M237.812714,283.002869 
	C239.630676,271.669495 244.956924,266.609894 254.607697,266.623016 
	C263.743561,266.635437 270.406982,272.661896 271.248352,281.672943 
	C271.996033,289.680481 265.868347,297.907074 258.169556,299.231598 
	C248.834503,300.837616 240.919006,296.054169 238.545074,287.329529 
	C238.198715,286.056671 238.052963,284.729156 237.812714,283.002869 
z"/>
<path fill="#000000" opacity="1.000000" stroke="none" 
	d="
M271.102844,216.477173 
	C271.456421,226.185272 266.138855,233.896484 258.537384,235.227325 
	C249.037308,236.890549 241.090881,232.307358 238.631744,223.746506 
	C236.083282,214.874664 240.899124,205.703644 249.471970,203.102966 
	C258.276001,200.432175 267.257050,204.985443 270.313599,213.679886 
	C270.588074,214.460617 270.789703,215.266968 271.102844,216.477173 
z"/>
</svg>