<svg version="1.1" id="Layer_1" xmlns="http://www.w3.org/2000/svg" xmlns:xlink="http://www.w3.org/1999/xlink" x="0px" y="0px"
	 width="100%" viewBox="0 0 500 500" enable-background="new 0 0 500 500" xml:space="preserve">
<path fill="#FFFFFF" opacity="1.000000" stroke="none" 
	d="
M323.000000,501.000000 
	C215.333359,501.000000 108.166718,501.000000 1.000057,501.000000 
	C1.000038,334.333405 1.000038,167.666794 1.000019,1.000147 
	C167.666565,1.000098 334.333130,1.000098 500.999756,1.000049 
	C500.999847,167.666519 500.999847,334.333038 500.999939,500.999786 
	C441.833344,501.000000 382.666656,501.000000 323.000000,501.000000 
M288.451172,154.381241 
	C289.245972,153.217026 289.814850,151.768494 290.869141,150.930923 
	C309.192169,136.374542 318.019043,117.596855 317.241608,94.058693 
	C315.812195,50.778732 270.635742,19.732794 229.782455,34.491131 
	C205.316055,43.329666 189.662979,60.688877 185.539108,86.444321 
	C181.382278,112.405602 190.074738,134.237793 210.941650,150.849258 
	C212.055771,151.736145 212.376984,153.619080 212.122345,154.996490 
	C171.720596,154.996490 131.318848,154.996490 91.006279,154.996490 
	C91.006279,253.996063 91.006279,352.270966 91.006279,450.775330 
	C197.724533,450.775330 304.273895,450.775330 411.329041,450.775330 
	C411.329041,416.665527 411.329041,382.783936 411.329041,348.511780 
	C424.773804,348.511780 437.718292,348.511780 450.800934,348.511780 
	C450.800934,318.024628 450.800934,287.934631 450.800934,257.256226 
	C437.559296,257.256226 424.510010,257.256226 411.125244,257.256226 
	C411.125244,222.916000 411.125244,189.162201 411.125244,155.543488 
	C410.483978,155.272812 410.192352,155.041962 409.900665,155.041885 
	C369.575043,155.030121 329.249390,155.035187 288.451172,154.381241 
z"/>
<path fill="#040404" opacity="1.000000" stroke="none" 
	d="
M288.923767,155.039474 
	C329.249390,155.035187 369.575043,155.030121 409.900665,155.041885 
	C410.192352,155.041962 410.483978,155.272812 411.125244,155.543488 
	C411.125244,189.162201 411.125244,222.916000 411.125244,257.256226 
	C424.510010,257.256226 437.559296,257.256226 450.800934,257.256226 
	C450.800934,287.934631 450.800934,318.024628 450.800934,348.511780 
	C437.718292,348.511780 424.773804,348.511780 411.329041,348.511780 
	C411.329041,382.783936 411.329041,416.665527 411.329041,450.775330 
	C304.273895,450.775330 197.724533,450.775330 91.006279,450.775330 
	C91.006279,352.270966 91.006279,253.996063 91.006279,154.996490 
	C131.318848,154.996490 171.720596,154.996490 212.872772,155.322449 
	C213.710342,160.542938 213.797455,165.437454 213.434326,170.223068 
	C177.218796,170.114166 141.453537,170.114166 105.813919,170.114166 
	C105.813919,258.937042 105.813919,347.314758 105.813919,435.740540 
	C202.813904,435.740540 299.539978,435.740540 396.207336,435.740540 
	C396.207336,347.104553 396.207336,258.722473 396.207336,170.005753 
	C394.164001,170.005753 392.353058,170.005753 390.542114,170.005753 
	C358.889648,170.005753 327.237213,169.998718 295.584747,170.019287 
	C293.095490,170.020905 290.606323,170.214569 288.090454,169.834686 
	C288.350433,164.580109 288.637115,159.809784 288.923767,155.039474 
z"/>
<path fill="#222222" opacity="1.000000" stroke="none" 
	d="
M288.687500,154.710358 
	C288.637115,159.809784 288.350433,164.580109 288.189575,170.269623 
	C288.315430,175.313095 288.315430,179.437378 288.315430,184.109863 
	C294.847137,184.109863 300.896912,184.109863 306.751282,184.109863 
	C306.751282,188.434860 306.751282,192.190170 306.751282,195.910919 
	C269.397827,195.910919 232.350876,195.910919 195.147202,195.910919 
	C195.147202,191.911255 195.147202,188.166290 195.147202,183.832169 
	C201.365036,183.832169 207.399292,183.832169 213.884583,183.832169 
	C213.884583,178.939972 213.884583,174.635971 213.884583,170.331970 
	C213.797455,165.437454 213.710342,160.542938 213.345261,155.343384 
	C212.376984,153.619080 212.055771,151.736145 210.941650,150.849258 
	C190.074738,134.237793 181.382278,112.405602 185.539108,86.444321 
	C189.662979,60.688877 205.316055,43.329666 229.782455,34.491131 
	C270.635742,19.732794 315.812195,50.778732 317.241608,94.058693 
	C318.019043,117.596855 309.192169,136.374542 290.869141,150.930923 
	C289.814850,151.768494 289.245972,153.217026 288.687500,154.710358 
z"/>
<path fill="#FEFEFE" opacity="1.000000" stroke="none" 
	d="
M213.434326,170.223068 
	C213.884583,174.635971 213.884583,178.939972 213.884583,183.832169 
	C207.399292,183.832169 201.365036,183.832169 195.147202,183.832169 
	C195.147202,188.166290 195.147202,191.911255 195.147202,195.910919 
	C232.350876,195.910919 269.397827,195.910919 306.751282,195.910919 
	C306.751282,192.190170 306.751282,188.434860 306.751282,184.109863 
	C300.896912,184.109863 294.847137,184.109863 288.315430,184.109863 
	C288.315430,179.437378 288.315430,175.313095 288.216278,170.753906 
	C290.606323,170.214569 293.095490,170.020905 295.584747,170.019287 
	C327.237213,169.998718 358.889648,170.005753 390.542114,170.005753 
	C392.353058,170.005753 394.164001,170.005753 396.207336,170.005753 
	C396.207336,258.722473 396.207336,347.104553 396.207336,435.740540 
	C299.539978,435.740540 202.813904,435.740540 105.813919,435.740540 
	C105.813919,347.314758 105.813919,258.937042 105.813919,170.114166 
	C141.453537,170.114166 177.218796,170.114166 213.434326,170.223068 
M263.499390,370.201996 
	C303.446960,370.201996 343.394531,370.201996 383.436462,370.201996 
	C383.436462,325.248413 383.436462,280.716370 383.436462,236.266541 
	C294.930664,236.266541 206.741135,236.266541 118.456490,236.266541 
	C118.456490,280.992584 118.456490,325.391907 118.456490,370.201965 
	C166.612274,370.201965 214.555801,370.201965 263.499390,370.201996 
z"/>
<path fill="#0D0D0D" opacity="1.000000" stroke="none" 
	d="
M262.999359,370.201965 
	C214.555801,370.201965 166.612274,370.201965 118.456490,370.201965 
	C118.456490,325.391907 118.456490,280.992584 118.456490,236.266541 
	C206.741135,236.266541 294.930664,236.266541 383.436462,236.266541 
	C383.436462,280.716370 383.436462,325.248413 383.436462,370.201996 
	C343.394531,370.201996 303.446960,370.201996 262.999359,370.201965 
M225.499756,363.466522 
	C275.792175,363.466522 326.084595,363.466522 376.614838,363.466522 
	C376.614838,323.086182 376.614838,283.178467 376.614838,243.063660 
	C292.787537,243.063660 209.204178,243.063660 125.379471,243.063660 
	C125.379471,283.182465 125.379471,323.090942 125.379471,363.466553 
	C158.578995,363.466553 191.539368,363.466553 225.499756,363.466522 
z"/>
<path fill="#F8F8F8" opacity="1.000000" stroke="none" 
	d="
M224.999756,363.466553 
	C191.539368,363.466553 158.578995,363.466553 125.379471,363.466553 
	C125.379471,323.090942 125.379471,283.182465 125.379471,243.063660 
	C209.204178,243.063660 292.787537,243.063660 376.614838,243.063660 
	C376.614838,283.178467 376.614838,323.086182 376.614838,363.466522 
	C326.084595,363.466522 275.792175,363.466522 224.999756,363.466553 
M160.500000,248.014786 
	C151.054047,248.014786 141.608109,248.014786 132.129913,248.014786 
	C132.129913,284.918488 132.129913,321.306427 132.129913,357.674530 
	C211.608185,357.674530 290.810516,357.674530 369.966980,357.674530 
	C369.966980,321.052399 369.966980,284.773926 369.966980,248.014786 
	C300.359680,248.014786 230.929840,248.014786 160.500000,248.014786 
z"/>
<path fill="#222222" opacity="1.000000" stroke="none" 
	d="
M161.000000,248.014786 
	C230.929840,248.014786 300.359680,248.014786 369.966980,248.014786 
	C369.966980,284.773926 369.966980,321.052399 369.966980,357.674530 
	C290.810516,357.674530 211.608185,357.674530 132.129913,357.674530 
	C132.129913,321.306427 132.129913,284.918488 132.129913,248.014786 
	C141.608109,248.014786 151.054047,248.014786 161.000000,248.014786 
M185.759766,277.515808 
	C185.759766,273.418182 185.759766,269.320526 185.759766,265.229065 
	C171.855881,265.229065 158.604782,265.229065 145.197021,265.229065 
	C145.197021,290.511658 145.197021,315.561523 145.197021,340.697388 
	C158.757690,340.697388 172.111313,340.697388 185.759735,340.697388 
	C185.759735,319.743011 185.759735,299.127350 185.759766,277.515808 
M202.046432,332.452820 
	C202.046432,335.224579 202.046432,337.996338 202.046432,340.731567 
	C216.002869,340.731567 229.387405,340.731567 242.726654,340.731567 
	C242.726654,315.376984 242.726654,290.326141 242.726654,265.304871 
	C229.065277,265.304871 215.679932,265.304871 202.046432,265.304871 
	C202.046432,287.560303 202.046432,309.511383 202.046432,332.452820 
M300.013092,339.298248 
	C300.013092,314.588348 300.013092,289.878448 300.013092,265.293213 
	C286.134979,265.293213 272.907745,265.293213 259.604004,265.293213 
	C259.604004,290.629211 259.604004,315.666718 259.604004,341.038361 
	C271.339935,341.038361 282.796204,341.073517 294.251862,341.003632 
	C296.150879,340.992065 298.047150,340.521820 300.013092,339.298248 
M357.007233,288.500000 
	C357.007233,280.741913 357.007233,272.983795 357.007233,265.234589 
	C343.174316,265.234589 329.928619,265.234589 316.478302,265.234589 
	C316.478302,290.515778 316.478302,315.558807 316.478302,340.713806 
	C330.090271,340.713806 343.452637,340.713806 356.761230,340.713806 
	C356.875610,340.074646 356.981689,339.757721 356.981964,339.440735 
	C356.996002,322.793823 357.001160,306.146912 357.007233,288.500000 
z"/>
<path fill="#FDFDFD" opacity="1.000000" stroke="none" 
	d="
M185.759750,278.013733 
	C185.759735,299.127350 185.759735,319.743011 185.759735,340.697388 
	C172.111313,340.697388 158.757690,340.697388 145.197021,340.697388 
	C145.197021,315.561523 145.197021,290.511658 145.197021,265.229065 
	C158.604782,265.229065 171.855881,265.229065 185.759766,265.229065 
	C185.759766,269.320526 185.759766,273.418182 185.759750,278.013733 
z"/>
<path fill="#FFFFFF" opacity="1.000000" stroke="none" 
	d="
M202.046432,331.957642 
	C202.046432,309.511383 202.046432,287.560303 202.046432,265.304871 
	C215.679932,265.304871 229.065277,265.304871 242.726654,265.304871 
	C242.726654,290.326141 242.726654,315.376984 242.726654,340.731567 
	C229.387405,340.731567 216.002869,340.731567 202.046432,340.731567 
	C202.046432,337.996338 202.046432,335.224579 202.046432,331.957642 
z"/>
<path fill="#FDFDFD" opacity="1.000000" stroke="none" 
	d="
M299.978882,339.780884 
	C298.047150,340.521820 296.150879,340.992065 294.251862,341.003632 
	C282.796204,341.073517 271.339935,341.038361 259.604004,341.038361 
	C259.604004,315.666718 259.604004,290.629211 259.604004,265.293213 
	C272.907745,265.293213 286.134979,265.293213 300.013092,265.293213 
	C300.013092,289.878448 300.013092,314.588348 299.978882,339.780884 
z"/>
<path fill="#FDFDFD" opacity="1.000000" stroke="none" 
	d="
M357.007233,289.000000 
	C357.001160,306.146912 356.996002,322.793823 356.981964,339.440735 
	C356.981689,339.757721 356.875610,340.074646 356.761230,340.713806 
	C343.452637,340.713806 330.090271,340.713806 316.478302,340.713806 
	C316.478302,315.558807 316.478302,290.515778 316.478302,265.234589 
	C329.928619,265.234589 343.174316,265.234589 357.007233,265.234589 
	C357.007233,272.983795 357.007233,280.741913 357.007233,289.000000 
z"/>
</svg>
