<svg version="1.1" id="Layer_1" xmlns="http://www.w3.org/2000/svg" xmlns:xlink="http://www.w3.org/1999/xlink" x="0px" y="0px"
	 width="100%" viewBox="0 0 500 500" enable-background="new 0 0 500 500" xml:space="preserve">
<path fill="#FFFFFF" opacity="1.000000" stroke="none" 
	d="
M283.000000,501.000000 
	C188.666687,501.000000 94.833382,501.000000 1.000050,501.000000 
	C1.000034,334.333405 1.000034,167.666794 1.000017,1.000140 
	C167.666565,1.000093 334.333130,1.000093 500.999756,1.000047 
	C500.999847,167.666519 500.999847,334.333038 500.999939,500.999786 
	C428.500000,501.000000 356.000000,501.000000 283.000000,501.000000 
M441.624115,251.536316 
	C439.479279,251.355682 437.334595,251.020142 435.189545,251.017731 
	C404.691528,250.983505 374.193481,250.994385 343.695435,250.994385 
	C341.797699,250.994385 339.899933,250.994385 336.893341,250.994385 
	C349.578461,246.568207 355.358826,237.567108 355.278320,225.824051 
	C354.919678,173.496521 354.816528,121.162117 355.332642,68.837219 
	C355.466309,55.281841 345.037933,43.921188 330.659729,44.237316 
	C307.672302,44.742733 284.665619,44.372566 261.667084,44.372578 
	C231.169037,44.372593 200.670914,44.331375 170.172974,44.391823 
	C156.936996,44.418056 146.950958,53.580936 146.931580,65.987450 
	C146.846466,120.483696 146.812241,174.980576 147.080765,229.475647 
	C147.100525,233.487228 148.823318,238.126984 151.260651,241.327621 
	C154.250839,245.254242 158.827393,247.972839 162.454880,250.994400 
	C130.669571,250.994400 98.340500,250.981140 66.011444,251.000671 
	C52.361885,251.008926 42.261456,260.405396 42.222416,273.930573 
	C42.067532,327.593292 42.066204,381.257050 42.222164,434.919769 
	C42.260376,448.068451 52.028255,457.566071 65.147766,457.588562 
	C118.810844,457.680573 172.474228,457.672241 226.137360,457.594147 
	C239.144989,457.575226 245.925003,452.505646 250.404160,440.190521 
	C250.464874,440.023621 250.921753,440.000854 251.381134,439.848816 
	C255.523865,453.005280 264.804810,457.828369 278.285706,457.750061 
	C330.280640,457.447845 382.278351,457.629181 434.275024,457.626312 
	C450.811188,457.625397 459.835541,448.585815 459.843750,431.982147 
	C459.857208,404.650574 459.847717,377.318970 459.847565,349.987396 
	C459.847412,325.155640 459.885651,300.323822 459.829895,275.492188 
	C459.802216,263.161865 453.670471,254.916122 441.624115,251.536316 
z"/>
<path fill="#1F2423" opacity="1.000000" stroke="none" 
	d="
M442.030151,251.656265 
	C453.670471,254.916122 459.802216,263.161865 459.829895,275.492188 
	C459.885651,300.323822 459.847412,325.155640 459.847565,349.987396 
	C459.847717,377.318970 459.857208,404.650574 459.843750,431.982147 
	C459.835541,448.585815 450.811188,457.625397 434.275024,457.626312 
	C382.278351,457.629181 330.280640,457.447845 278.285706,457.750061 
	C264.804810,457.828369 255.523865,453.005280 251.381134,439.848816 
	C250.921753,440.000854 250.464874,440.023621 250.404160,440.190521 
	C245.925003,452.505646 239.144989,457.575226 226.137360,457.594147 
	C172.474228,457.672241 118.810844,457.680573 65.147766,457.588562 
	C52.028255,457.566071 42.260376,448.068451 42.222164,434.919769 
	C42.066204,381.257050 42.067532,327.593292 42.222416,273.930573 
	C42.261456,260.405396 52.361885,251.008926 66.011444,251.000671 
	C98.340500,250.981140 130.669571,250.994400 162.454880,250.994400 
	C158.827393,247.972839 154.250839,245.254242 151.260651,241.327621 
	C148.823318,238.126984 147.100525,233.487228 147.080765,229.475647 
	C146.812241,174.980576 146.846466,120.483696 146.931580,65.987450 
	C146.950958,53.580936 156.936996,44.418056 170.172974,44.391823 
	C200.670914,44.331375 231.169037,44.372593 261.667084,44.372578 
	C284.665619,44.372566 307.672302,44.742733 330.659729,44.237316 
	C345.037933,43.921188 355.466309,55.281841 355.332642,68.837219 
	C354.816528,121.162117 354.919678,173.496521 355.278320,225.824051 
	C355.358826,237.567108 349.578461,246.568207 336.893341,250.994385 
	C339.899933,250.994385 341.797699,250.994385 343.695435,250.994385 
	C374.193481,250.994385 404.691528,250.983505 435.189545,251.017731 
	C437.334595,251.020142 439.479279,251.355682 442.030151,251.656265 
M170.334106,354.170074 
	C152.637756,354.170074 134.941422,354.170074 116.785118,354.170074 
	C122.023308,338.391632 126.986282,323.442200 132.042679,308.211365 
	C125.417892,302.838165 122.260292,295.979401 122.770988,287.295197 
	C123.286842,278.523346 127.824738,272.346649 135.407883,267.001831 
	C112.241783,267.001831 90.104774,266.991272 67.967781,267.007629 
	C60.398033,267.013245 58.083687,269.274780 58.081097,276.789795 
	C58.063251,328.615143 58.062317,380.440460 58.083523,432.265808 
	C58.086426,439.362946 60.566486,441.814148 67.782578,441.817352 
	C120.274460,441.840576 172.766357,441.840332 225.258255,441.817902 
	C232.696564,441.814728 234.991623,439.417786 234.993057,431.834198 
	C235.002808,380.175507 235.004532,328.516815 234.991180,276.858124 
	C234.989212,269.239594 232.765671,267.013947 225.207275,267.007690 
	C204.543808,266.990540 183.880325,267.001801 163.216843,267.001801 
	C161.643799,267.001801 160.070755,267.001801 157.775604,267.001801 
	C172.197449,277.812042 174.758499,293.624939 164.256744,304.983002 
	C161.723816,307.722473 161.445862,309.750885 162.626678,313.125916 
	C167.329376,326.566956 171.666748,340.135803 176.308975,354.170074 
	C174.235779,354.170074 172.759506,354.170074 170.334106,354.170074 
M443.926422,352.500000 
	C443.926422,327.504730 443.933777,302.509460 443.922394,277.514191 
	C443.918549,269.055145 441.825928,267.008026 433.246979,267.003845 
	C418.749695,266.996796 404.252411,267.001892 389.755127,267.001892 
	C382.339905,267.001892 374.924713,267.001892 366.860077,267.001892 
	C381.963135,277.729553 383.797485,296.184387 370.122375,308.736145 
	C375.087128,323.691559 380.051910,338.646942 385.092102,353.829529 
	C365.190247,353.829529 345.685913,353.829529 325.734253,353.829529 
	C330.512146,339.546722 335.107849,325.691559 339.807190,311.871582 
	C340.622986,309.472351 340.151306,308.028259 338.596039,305.814575 
	C335.736816,301.744873 332.913971,297.084778 332.028168,292.308685 
	C330.069580,281.748260 334.730286,273.452301 344.438019,267.001892 
	C321.388062,267.001892 299.437134,266.997650 277.486206,267.004059 
	C268.956299,267.006531 267.004822,268.986053 267.004059,277.650177 
	C266.999634,328.807281 267.000092,379.964386 267.003662,431.121490 
	C267.004272,439.733643 269.044434,441.824738 277.512085,441.825989 
	C329.502350,441.833618 381.492645,441.834839 433.482910,441.824554 
	C441.633301,441.822937 443.917633,439.553223 443.921539,431.485413 
	C443.934113,405.490265 443.926361,379.495148 443.926422,352.500000 
M231.321655,116.781837 
	C232.641937,112.847069 234.227493,108.973358 235.154053,104.947968 
	C235.533417,103.299866 235.073074,100.816010 233.997849,99.578499 
	C226.275375,90.690506 224.494675,79.708351 230.230652,70.062241 
	C232.412064,66.393814 235.906876,63.506374 238.885361,60.170830 
	C216.657608,60.170830 194.510956,60.151371 172.364380,60.181610 
	C164.828293,60.191902 162.620895,62.451965 162.619507,70.037979 
	C162.609985,121.517021 162.609055,172.996063 162.619781,224.475113 
	C162.621613,233.238617 164.398911,234.995789 173.124603,234.996338 
	C224.936844,234.999619 276.749084,234.998932 328.561340,234.997086 
	C337.682037,234.996765 339.373199,233.338257 339.374664,224.268295 
	C339.382935,173.122452 339.380981,121.976601 339.375916,70.830757 
	C339.375061,62.224976 337.372589,60.179890 328.911011,60.174702 
	C308.086151,60.161934 287.261322,60.165890 266.436462,60.182339 
	C265.270599,60.183258 264.104858,60.357651 262.464569,60.489414 
	C277.600525,72.241776 279.131592,86.205086 267.460052,99.989349 
	C266.568756,101.041992 266.273468,103.276863 266.698242,104.654800 
	C269.191681,112.743050 272.000702,120.733566 274.665222,128.769669 
	C276.636780,134.715637 278.550323,140.680847 280.544769,146.806580 
	C260.610931,146.806580 241.260239,146.806580 221.384537,146.806580 
	C224.725372,136.729858 227.906586,127.134605 231.321655,116.781837 
M254.482910,250.991119 
	C247.538864,250.991119 240.594803,250.991119 233.650757,250.991119 
	C242.338943,254.309540 248.051788,259.868958 250.671707,269.746094 
	C254.093216,260.930054 259.052917,254.490311 267.310852,250.991119 
	C263.365051,250.991119 259.419250,250.991119 254.482910,250.991119 
z"/>
<path fill="#FDFDFD" opacity="1.000000" stroke="none" 
	d="
M170.808670,354.170074 
	C172.759506,354.170074 174.235779,354.170074 176.308975,354.170074 
	C171.666748,340.135803 167.329376,326.566956 162.626678,313.125916 
	C161.445862,309.750885 161.723816,307.722473 164.256744,304.983002 
	C174.758499,293.624939 172.197449,277.812042 157.775604,267.001801 
	C160.070755,267.001801 161.643799,267.001801 163.216843,267.001801 
	C183.880325,267.001801 204.543808,266.990540 225.207275,267.007690 
	C232.765671,267.013947 234.989212,269.239594 234.991180,276.858124 
	C235.004532,328.516815 235.002808,380.175507 234.993057,431.834198 
	C234.991623,439.417786 232.696564,441.814728 225.258255,441.817902 
	C172.766357,441.840332 120.274460,441.840576 67.782578,441.817352 
	C60.566486,441.814148 58.086426,439.362946 58.083523,432.265808 
	C58.062317,380.440460 58.063251,328.615143 58.081097,276.789795 
	C58.083687,269.274780 60.398033,267.013245 67.967781,267.007629 
	C90.104774,266.991272 112.241783,267.001831 135.407883,267.001831 
	C127.824738,272.346649 123.286842,278.523346 122.770988,287.295197 
	C122.260292,295.979401 125.417892,302.838165 132.042679,308.211365 
	C126.986282,323.442200 122.023308,338.391632 116.785118,354.170074 
	C134.941422,354.170074 152.637756,354.170074 170.808670,354.170074 
M76.267883,397.742462 
	C72.014404,410.641693 67.760925,423.540955 63.384594,436.812744 
	C83.379097,436.812744 102.773224,436.812744 122.578384,436.812744 
	C122.099007,435.170013 121.732033,433.757721 121.276230,432.374756 
	C117.375504,420.539673 113.652191,408.640289 109.437546,396.917755 
	C108.037483,393.023621 108.390915,390.581604 111.198288,387.349396 
	C119.880157,377.353699 118.868164,362.904907 109.421806,354.080627 
	C100.560257,345.802704 85.372414,345.835419 76.656708,354.151276 
	C67.145447,363.226196 66.159447,377.469086 75.014381,387.409698 
	C77.980835,390.739838 78.387688,393.428131 76.267883,397.742462 
M174.467712,381.691040 
	C176.805481,385.080688 179.143250,388.470306 181.581863,392.006165 
	C176.715942,406.656464 171.757736,421.584656 166.723923,436.740479 
	C186.719788,436.740479 206.235031,436.740479 225.689621,436.740479 
	C225.781204,436.285431 225.882782,436.099304 225.837189,435.962097 
	C221.280075,422.246307 216.752289,408.520477 212.106003,394.834900 
	C211.290283,392.432220 211.382843,390.954956 213.387253,388.842346 
	C224.403702,377.230988 221.900024,358.477478 208.625595,351.063873 
	C200.201279,346.359009 189.006699,347.009094 181.784485,352.622559 
	C173.249908,359.256042 170.615463,368.999512 174.467712,381.691040 
z"/>
<path fill="#FDFDFD" opacity="1.000000" stroke="none" 
	d="
M443.926422,353.000000 
	C443.926361,379.495148 443.934113,405.490265 443.921539,431.485413 
	C443.917633,439.553223 441.633301,441.822937 433.482910,441.824554 
	C381.492645,441.834839 329.502350,441.833618 277.512085,441.825989 
	C269.044434,441.824738 267.004272,439.733643 267.003662,431.121490 
	C267.000092,379.964386 266.999634,328.807281 267.004059,277.650177 
	C267.004822,268.986053 268.956299,267.006531 277.486206,267.004059 
	C299.437134,266.997650 321.388062,267.001892 344.438019,267.001892 
	C334.730286,273.452301 330.069580,281.748260 332.028168,292.308685 
	C332.913971,297.084778 335.736816,301.744873 338.596039,305.814575 
	C340.151306,308.028259 340.622986,309.472351 339.807190,311.871582 
	C335.107849,325.691559 330.512146,339.546722 325.734253,353.829529 
	C345.685913,353.829529 365.190247,353.829529 385.092102,353.829529 
	C380.051910,338.646942 375.087128,323.691559 370.117645,308.737732 
	C383.797485,296.184387 381.963135,277.729553 366.860077,267.001892 
	C374.924713,267.001892 382.339905,267.001892 389.755127,267.001892 
	C404.252411,267.001892 418.749695,266.996796 433.246979,267.003845 
	C441.825928,267.008026 443.918549,269.055145 443.922394,277.514191 
	C443.933777,302.509460 443.926422,327.504730 443.926422,353.000000 
M276.769043,423.255615 
	C275.301361,427.711212 273.833679,432.166809 272.281525,436.878815 
	C292.403381,436.878815 311.703003,436.878815 331.492706,436.878815 
	C330.810669,434.570312 330.263794,432.512543 329.596497,430.494629 
	C325.683258,418.661469 321.829468,406.807220 317.744110,395.033508 
	C316.806396,392.331055 317.082458,390.744781 319.154907,388.539917 
	C328.869232,378.205017 328.180481,362.915497 317.916290,353.786255 
	C308.777344,345.657715 293.692993,345.978271 285.181061,354.481903 
	C275.657349,363.996307 275.333008,378.426544 284.778168,388.598267 
	C286.847229,390.826508 287.073151,392.425781 286.132782,395.094910 
	C282.933746,404.174713 280.005341,413.349884 276.769043,423.255615 
M411.455811,348.719299 
	C399.717743,346.137878 389.954956,350.262146 384.237946,360.217407 
	C379.126709,369.117920 380.578766,380.694214 388.257599,388.762756 
	C390.205627,390.809662 390.436462,392.379852 389.604340,394.813660 
	C385.470673,406.903625 381.451996,419.032959 377.412506,431.154999 
	C376.812042,432.956940 376.316010,434.793701 375.699005,436.857330 
	C395.773132,436.857330 415.202057,436.857330 434.604034,436.857330 
	C434.655212,436.517426 434.742493,436.332184 434.695892,436.191132 
	C430.166718,422.478607 425.682648,408.750732 421.040283,395.076538 
	C420.153320,392.463989 420.351318,390.903503 422.439911,388.652618 
	C435.069000,375.042053 429.699280,354.563965 411.455811,348.719299 
z"/>
<path fill="#FDFDFD" opacity="1.000000" stroke="none" 
	d="
M231.204727,117.160599 
	C227.906586,127.134605 224.725372,136.729858 221.384537,146.806580 
	C241.260239,146.806580 260.610931,146.806580 280.544769,146.806580 
	C278.550323,140.680847 276.636780,134.715637 274.665222,128.769669 
	C272.000702,120.733566 269.191681,112.743050 266.698242,104.654800 
	C266.273468,103.276863 266.568756,101.041992 267.460052,99.989349 
	C279.131592,86.205086 277.600525,72.241776 262.464569,60.489414 
	C264.104858,60.357651 265.270599,60.183258 266.436462,60.182339 
	C287.261322,60.165890 308.086151,60.161934 328.911011,60.174702 
	C337.372589,60.179890 339.375061,62.224976 339.375916,70.830757 
	C339.380981,121.976601 339.382935,173.122452 339.374664,224.268295 
	C339.373199,233.338257 337.682037,234.996765 328.561340,234.997086 
	C276.749084,234.998932 224.936844,234.999619 173.124603,234.996338 
	C164.398911,234.995789 162.621613,233.238617 162.619781,224.475113 
	C162.609055,172.996063 162.609985,121.517021 162.619507,70.037979 
	C162.620895,62.451965 164.828293,60.191902 172.364380,60.181610 
	C194.510956,60.151371 216.657608,60.170830 238.885361,60.170830 
	C235.906876,63.506374 232.412064,66.393814 230.230652,70.062241 
	C224.494675,79.708351 226.275375,90.690506 233.997849,99.578499 
	C235.073074,100.816010 235.533417,103.299866 235.154053,104.947968 
	C234.227493,108.973358 232.641937,112.847069 231.204727,117.160599 
M316.492126,230.166367 
	C320.957550,230.166367 325.423004,230.166367 330.354706,230.166367 
	C329.868713,228.414520 329.575226,227.151550 329.169434,225.925766 
	C325.467560,214.742920 322.010712,203.468384 317.915222,192.431046 
	C315.960754,187.163803 315.157379,182.791428 320.291443,179.041031 
	C321.041077,178.493408 321.443329,177.432709 321.928101,176.565720 
	C327.847229,165.978897 324.821930,152.657608 314.876923,145.456070 
	C304.835358,138.184540 291.089478,139.767090 282.849640,149.143387 
	C274.463074,158.686722 274.643158,172.319733 283.673859,181.642075 
	C285.786804,183.823242 286.080566,185.361923 285.141113,188.077560 
	C280.802734,200.618423 276.692780,213.238480 272.532745,225.840637 
	C272.104034,227.139313 271.886353,228.507645 271.494537,230.166382 
	C286.548737,230.166382 301.022064,230.166382 316.492126,230.166367 
M196.499954,230.166000 
	C206.583969,230.166000 216.667984,230.166000 227.268066,230.166000 
	C222.056656,214.471405 217.053970,199.405472 212.085007,184.441040 
	C225.632401,172.656921 222.377457,155.860870 214.940231,148.373154 
	C205.702301,139.072495 191.562637,138.439224 181.584488,146.982849 
	C172.241547,154.982544 169.231796,172.275391 182.834900,184.707016 
	C177.858734,199.711975 172.882568,214.716919 167.759109,230.166016 
	C177.547623,230.166016 186.523773,230.166016 196.499954,230.166000 
z"/>
<path fill="#F8F8F8" opacity="1.000000" stroke="none" 
	d="
M254.978180,250.991119 
	C259.419250,250.991119 263.365051,250.991119 267.310852,250.991119 
	C259.052917,254.490311 254.093216,260.930054 250.671707,269.746094 
	C248.051788,259.868958 242.338943,254.309540 233.650757,250.991119 
	C240.594803,250.991119 247.538864,250.991119 254.978180,250.991119 
z"/>
<path fill="#1E2322" opacity="1.000000" stroke="none" 
	d="
M76.437881,397.381622 
	C78.387688,393.428131 77.980835,390.739838 75.014381,387.409698 
	C66.159447,377.469086 67.145447,363.226196 76.656708,354.151276 
	C85.372414,345.835419 100.560257,345.802704 109.421806,354.080627 
	C118.868164,362.904907 119.880157,377.353699 111.198288,387.349396 
	C108.390915,390.581604 108.037483,393.023621 109.437546,396.917755 
	C113.652191,408.640289 117.375504,420.539673 121.276230,432.374756 
	C121.732033,433.757721 122.099007,435.170013 122.578384,436.812744 
	C102.773224,436.812744 83.379097,436.812744 63.384594,436.812744 
	C67.760925,423.540955 72.014404,410.641693 76.437881,397.381622 
z"/>
<path fill="#1D2221" opacity="1.000000" stroke="none" 
	d="
M174.293854,381.330322 
	C170.615463,368.999512 173.249908,359.256042 181.784485,352.622559 
	C189.006699,347.009094 200.201279,346.359009 208.625595,351.063873 
	C221.900024,358.477478 224.403702,377.230988 213.387253,388.842346 
	C211.382843,390.954956 211.290283,392.432220 212.106003,394.834900 
	C216.752289,408.520477 221.280075,422.246307 225.837189,435.962097 
	C225.882782,436.099304 225.781204,436.285431 225.689621,436.740479 
	C206.235031,436.740479 186.719788,436.740479 166.723923,436.740479 
	C171.757736,421.584656 176.715942,406.656464 181.581863,392.006165 
	C179.143250,388.470306 176.805481,385.080688 174.293854,381.330322 
z"/>
<path fill="#1E2322" opacity="1.000000" stroke="none" 
	d="
M276.871338,422.872131 
	C280.005341,413.349884 282.933746,404.174713 286.132782,395.094910 
	C287.073151,392.425781 286.847229,390.826508 284.778168,388.598267 
	C275.333008,378.426544 275.657349,363.996307 285.181061,354.481903 
	C293.692993,345.978271 308.777344,345.657715 317.916290,353.786255 
	C328.180481,362.915497 328.869232,378.205017 319.154907,388.539917 
	C317.082458,390.744781 316.806396,392.331055 317.744110,395.033508 
	C321.829468,406.807220 325.683258,418.661469 329.596497,430.494629 
	C330.263794,432.512543 330.810669,434.570312 331.492706,436.878815 
	C311.703003,436.878815 292.403381,436.878815 272.281525,436.878815 
	C273.833679,432.166809 275.301361,427.711212 276.871338,422.872131 
z"/>
<path fill="#1E2322" opacity="1.000000" stroke="none" 
	d="
M411.856171,348.820312 
	C429.699280,354.563965 435.069000,375.042053 422.439911,388.652618 
	C420.351318,390.903503 420.153320,392.463989 421.040283,395.076538 
	C425.682648,408.750732 430.166718,422.478607 434.695892,436.191132 
	C434.742493,436.332184 434.655212,436.517426 434.604034,436.857330 
	C415.202057,436.857330 395.773132,436.857330 375.699005,436.857330 
	C376.316010,434.793701 376.812042,432.956940 377.412506,431.154999 
	C381.451996,419.032959 385.470673,406.903625 389.604340,394.813660 
	C390.436462,392.379852 390.205627,390.809662 388.257599,388.762756 
	C380.578766,380.694214 379.126709,369.117920 384.237946,360.217407 
	C389.954956,350.262146 399.717743,346.137878 411.856171,348.820312 
z"/>
<path fill="#1D2221" opacity="1.000000" stroke="none" 
	d="
M315.993744,230.166382 
	C301.022064,230.166382 286.548737,230.166382 271.494537,230.166382 
	C271.886353,228.507645 272.104034,227.139313 272.532745,225.840637 
	C276.692780,213.238480 280.802734,200.618423 285.141113,188.077560 
	C286.080566,185.361923 285.786804,183.823242 283.673859,181.642075 
	C274.643158,172.319733 274.463074,158.686722 282.849640,149.143387 
	C291.089478,139.767090 304.835358,138.184540 314.876923,145.456070 
	C324.821930,152.657608 327.847229,165.978897 321.928101,176.565720 
	C321.443329,177.432709 321.041077,178.493408 320.291443,179.041031 
	C315.157379,182.791428 315.960754,187.163803 317.915222,192.431046 
	C322.010712,203.468384 325.467560,214.742920 329.169434,225.925766 
	C329.575226,227.151550 329.868713,228.414520 330.354706,230.166367 
	C325.423004,230.166367 320.957550,230.166367 315.993744,230.166382 
z"/>
<path fill="#1D2221" opacity="1.000000" stroke="none" 
	d="
M195.999939,230.166016 
	C186.523773,230.166016 177.547623,230.166016 167.759109,230.166016 
	C172.882568,214.716919 177.858734,199.711975 182.835846,184.707214 
	C169.231796,172.275391 172.241547,154.982544 181.584488,146.982849 
	C191.562637,138.439224 205.702301,139.072495 214.940231,148.373154 
	C222.377457,155.860870 225.632401,172.656921 212.085007,184.441040 
	C217.053970,199.405472 222.056656,214.471405 227.268066,230.166000 
	C216.667984,230.166000 206.583969,230.166000 195.999939,230.166016 
z"/>
</svg>