<?xml version="1.0" encoding="UTF-8"?>
<!DOCTYPE svg PUBLIC "-//W3C//DTD SVG 1.1//EN" "http://www.w3.org/Graphics/SVG/1.1/DTD/svg11.dtd">
<svg xmlns="http://www.w3.org/2000/svg" version="1.1" width="500px" height="500px" style="shape-rendering:geometricPrecision; text-rendering:geometricPrecision; image-rendering:optimizeQuality; fill-rule:evenodd; clip-rule:evenodd" xmlns:xlink="http://www.w3.org/1999/xlink">
<g><path style="opacity:1" fill="#fefefe" d="M -0.5,-0.5 C 166.167,-0.5 332.833,-0.5 499.5,-0.5C 499.5,166.167 499.5,332.833 499.5,499.5C 332.833,499.5 166.167,499.5 -0.5,499.5C -0.5,332.833 -0.5,166.167 -0.5,-0.5 Z"/></g>
<g><path style="opacity:1" fill="#020202" d="M 376.5,422.5 C 291.833,422.5 207.167,422.5 122.5,422.5C 122.5,319.833 122.5,217.167 122.5,114.5C 124.5,114.5 126.5,114.5 128.5,114.5C 130.964,100.379 138.964,91.3792 152.5,87.5C 160.391,87.882 165.557,91.882 168,99.5C 172.43,93.0573 178.43,89.0573 186,87.5C 194.17,87.6649 199.503,91.6649 202,99.5C 208.562,88.4574 217.728,85.2907 229.5,90C 231.788,92.7433 233.955,95.5767 236,98.5C 239.642,93.8535 244.142,90.3535 249.5,88C 259.065,86.0801 265.732,89.5801 269.5,98.5C 274.954,90.9385 282.288,87.4385 291.5,88C 297.307,89.8072 301.141,93.6405 303,99.5C 309.562,88.4574 318.728,85.2907 330.5,90C 333.531,92.559 335.698,95.7257 337,99.5C 344.265,87.3363 353.932,84.6696 366,91.5C 371.31,98.2649 373.477,105.932 372.5,114.5C 373.833,114.5 375.167,114.5 376.5,114.5C 376.5,217.167 376.5,319.833 376.5,422.5 Z"/></g>
<g><path style="opacity:1" fill="#f9f9f9" d="M 160.5,106.5 C 160.5,108.833 160.5,111.167 160.5,113.5C 152.757,114.13 145.424,113.463 138.5,111.5C 139.547,107.739 141.381,104.406 144,101.5C 147.11,97.055 151.277,95.555 156.5,97C 159.076,99.651 160.409,102.818 160.5,106.5 Z"/></g>
<g><path style="opacity:1" fill="#f7f7f7" d="M 183.5,96.5 C 188.963,95.7839 192.463,98.1172 194,103.5C 194.499,107.152 194.665,110.818 194.5,114.5C 186.833,114.5 179.167,114.5 171.5,114.5C 173.02,106.778 177.02,100.778 183.5,96.5 Z"/></g>
<g><path style="opacity:1" fill="#f6f6f6" d="M 217.5,96.5 C 223.404,95.8939 226.904,98.5605 228,104.5C 228.498,107.817 228.665,111.15 228.5,114.5C 220.472,114.831 212.472,114.498 204.5,113.5C 207.169,106.465 211.502,100.798 217.5,96.5 Z"/></g>
<g><path style="opacity:1" fill="#fafafa" d="M 261.5,106.5 C 261.5,108.833 261.5,111.167 261.5,113.5C 253.981,113.825 246.648,113.492 239.5,112.5C 240.621,108.526 242.454,104.86 245,101.5C 253.79,93.4198 259.29,95.0865 261.5,106.5 Z"/></g>
<g><path style="opacity:1" fill="#f6f6f6" d="M 284.5,96.5 C 288.639,95.7042 291.805,97.0375 294,100.5C 295.379,105.036 295.879,109.703 295.5,114.5C 287.833,114.5 280.167,114.5 272.5,114.5C 274.516,107.123 278.516,101.123 284.5,96.5 Z"/></g>
<g><path style="opacity:1" fill="#f6f6f6" d="M 318.5,96.5 C 324.404,95.8939 327.904,98.5605 329,104.5C 329.498,107.817 329.665,111.15 329.5,114.5C 321.493,114.666 313.493,114.5 305.5,114C 308.028,106.757 312.361,100.923 318.5,96.5 Z"/></g>
<g><path style="opacity:1" fill="#fafafa" d="M 362.5,104.5 C 362.5,107.5 362.5,110.5 362.5,113.5C 354.981,113.825 347.648,113.492 340.5,112.5C 342.434,105.733 346.434,100.566 352.5,97C 358.505,95.83 361.838,98.33 362.5,104.5 Z"/></g>
<g><path style="opacity:1" fill="#aeaeae" d="M 160.5,106.5 C 161.473,108.948 161.806,111.615 161.5,114.5C 153.5,114.5 145.5,114.5 137.5,114.5C 137.263,113.209 137.596,112.209 138.5,111.5C 145.424,113.463 152.757,114.13 160.5,113.5C 160.5,111.167 160.5,108.833 160.5,106.5 Z"/></g>
<g><path style="opacity:1" fill="#b8b8b8" d="M 261.5,106.5 C 262.473,108.948 262.806,111.615 262.5,114.5C 254.472,114.831 246.472,114.498 238.5,113.5C 238.624,112.893 238.957,112.56 239.5,112.5C 246.648,113.492 253.981,113.825 261.5,113.5C 261.5,111.167 261.5,108.833 261.5,106.5 Z"/></g>
<g><path style="opacity:1" fill="#b6b6b6" d="M 362.5,104.5 C 363.479,107.625 363.813,110.958 363.5,114.5C 355.472,114.831 347.472,114.498 339.5,113.5C 339.624,112.893 339.957,112.56 340.5,112.5C 347.648,113.492 354.981,113.825 362.5,113.5C 362.5,110.5 362.5,107.5 362.5,104.5 Z"/></g>
<g><path style="opacity:1" fill="#868686" d="M 158.5,124.5 C 151.167,124.5 143.833,124.5 136.5,124.5C 136.5,126.5 136.5,128.5 136.5,130.5C 135.532,128.393 135.198,126.059 135.5,123.5C 143.352,123.175 151.018,123.508 158.5,124.5 Z"/></g>
<g><path style="opacity:1" fill="#7f7f7f" d="M 169.5,124.5 C 177.01,123.18 184.677,123.18 192.5,124.5C 192.376,125.107 192.043,125.44 191.5,125.5C 184.352,124.508 177.019,124.175 169.5,124.5 Z"/></g>
<g><path style="opacity:1" fill="#7a7a7a" d="M 203.5,124.5 C 211.01,123.18 218.677,123.18 226.5,124.5C 226.376,125.107 226.043,125.44 225.5,125.5C 218.352,124.508 211.019,124.175 203.5,124.5 Z"/></g>
<g><path style="opacity:1" fill="#848484" d="M 259.5,124.5 C 252.167,124.5 244.833,124.5 237.5,124.5C 237.5,126.5 237.5,128.5 237.5,130.5C 236.532,128.393 236.198,126.059 236.5,123.5C 244.352,123.175 252.018,123.508 259.5,124.5 Z"/></g>
<g><path style="opacity:1" fill="#7d7d7d" d="M 270.5,124.5 C 277.982,123.508 285.648,123.175 293.5,123.5C 293.737,124.791 293.404,125.791 292.5,126.5C 285.576,124.537 278.243,123.87 270.5,124.5 Z"/></g>
<g><path style="opacity:1" fill="#7c7c7c" d="M 304.5,124.5 C 312.01,123.18 319.677,123.18 327.5,124.5C 327.376,125.107 327.043,125.44 326.5,125.5C 319.352,124.508 312.019,124.175 304.5,124.5 Z"/></g>
<g><path style="opacity:1" fill="#fbfbfb" d="M 158.5,124.5 C 156.167,130.334 152.501,135.168 147.5,139C 140.53,140.536 136.863,137.703 136.5,130.5C 136.5,128.5 136.5,126.5 136.5,124.5C 143.833,124.5 151.167,124.5 158.5,124.5 Z"/></g>
<g><path style="opacity:1" fill="#f7f7f7" d="M 169.5,124.5 C 177.019,124.175 184.352,124.508 191.5,125.5C 190.529,129.441 188.529,132.774 185.5,135.5C 178.685,142.837 173.519,141.837 170,132.5C 169.503,129.854 169.336,127.187 169.5,124.5 Z"/></g>
<g><path style="opacity:1" fill="#fbfbfb" d="M 203.5,124.5 C 211.019,124.175 218.352,124.508 225.5,125.5C 223.064,132.771 218.231,137.438 211,139.5C 208.966,139.646 207.299,138.98 206,137.5C 204.101,133.379 203.268,129.046 203.5,124.5 Z"/></g>
<g><path style="opacity:1" fill="#f7f7f7" d="M 259.5,124.5 C 257.051,133.459 251.384,138.626 242.5,140C 239.227,137.681 237.56,134.514 237.5,130.5C 237.5,128.5 237.5,126.5 237.5,124.5C 244.833,124.5 252.167,124.5 259.5,124.5 Z"/></g>
<g><path style="opacity:1" fill="#f8f8f8" d="M 270.5,124.5 C 278.243,123.87 285.576,124.537 292.5,126.5C 290.049,133.416 285.383,138.083 278.5,140.5C 272.246,137.125 269.579,131.792 270.5,124.5 Z"/></g>
<g><path style="opacity:1" fill="#fafafa" d="M 304.5,124.5 C 312.019,124.175 319.352,124.508 326.5,125.5C 324.086,132.749 319.253,137.415 312,139.5C 308.94,139.775 306.94,138.442 306,135.5C 304.892,131.914 304.392,128.247 304.5,124.5 Z"/></g>
<g><path style="opacity:1" fill="#efefef" d="M 338.5,123.5 C 345.833,123.5 353.167,123.5 360.5,123.5C 358.935,131.894 354.102,137.227 346,139.5C 342.94,139.775 340.94,138.442 340,135.5C 337.849,131.604 337.349,127.604 338.5,123.5 Z"/></g>
<g><path style="opacity:1" fill="#575757" d="M 366.5,413.5 C 366.833,320.332 366.499,227.332 365.5,134.5C 365.783,133.711 366.283,133.044 367,132.5C 367.832,226.334 367.666,320.001 366.5,413.5 Z"/></g>
<g><path style="opacity:1" fill="#fcfcfc" d="M 365.5,134.5 C 366.499,227.332 366.833,320.332 366.5,413.5C 288.5,413.5 210.5,413.5 132.5,413.5C 132.167,323.665 132.501,233.998 133.5,144.5C 134.749,146.136 136.416,147.303 138.5,148C 143.734,148.977 148.734,148.31 153.5,146C 156.667,143.5 159.5,140.667 162,137.5C 168.133,149.11 176.966,151.61 188.5,145C 191,142.5 193.5,140 196,137.5C 201.186,148.452 209.352,151.286 220.5,146C 223.979,143.688 226.979,140.854 229.5,137.5C 234.891,148.716 243.224,151.549 254.5,146C 258,143.833 260.833,141 263,137.5C 267.942,147.719 275.775,150.885 286.5,147C 290.299,144.203 293.799,141.036 297,137.5C 303.103,149.12 311.936,151.62 323.5,145C 326.017,142.651 328.35,140.151 330.5,137.5C 337.327,149.632 346.66,151.798 358.5,144C 361.453,141.248 363.786,138.082 365.5,134.5 Z"/></g>
<g><path style="opacity:1" fill="#585858" d="M 133.5,144.5 C 132.501,233.998 132.167,323.665 132.5,413.5C 131.168,323.666 131.168,233.666 132.5,143.5C 133.107,143.624 133.44,143.957 133.5,144.5 Z"/></g>
<g><path style="opacity:1" fill="#000000" d="M 151.5,174.5 C 216.5,174.5 281.5,174.5 346.5,174.5C 346.5,175.833 346.5,177.167 346.5,178.5C 281.5,178.5 216.5,178.5 151.5,178.5C 151.5,177.167 151.5,175.833 151.5,174.5 Z"/></g>
<g><path style="opacity:1" fill="#646464" d="M 346.5,195.5 C 281.5,195.5 216.5,195.5 151.5,195.5C 151.5,196.5 151.5,197.5 151.5,198.5C 150.566,197.432 150.232,196.099 150.5,194.5C 216.002,194.168 281.335,194.501 346.5,195.5 Z"/></g>
<g><path style="opacity:1" fill="#000000" d="M 346.5,195.5 C 346.5,196.5 346.5,197.5 346.5,198.5C 281.5,198.5 216.5,198.5 151.5,198.5C 151.5,197.5 151.5,196.5 151.5,195.5C 216.5,195.5 281.5,195.5 346.5,195.5 Z"/></g>
<g><path style="opacity:1" fill="#0f0f0f" d="M 151.5,215.5 C 216.5,215.5 281.5,215.5 346.5,215.5C 346.5,216.833 346.5,218.167 346.5,219.5C 281.5,219.5 216.5,219.5 151.5,219.5C 151.5,218.167 151.5,216.833 151.5,215.5 Z"/></g>
<g><path style="opacity:1" fill="#0e0e0e" d="M 151.5,235.5 C 216.5,235.5 281.5,235.5 346.5,235.5C 346.5,236.833 346.5,238.167 346.5,239.5C 281.5,239.5 216.5,239.5 151.5,239.5C 151.5,238.167 151.5,236.833 151.5,235.5 Z"/></g>
<g><path style="opacity:1" fill="#000000" d="M 151.5,256.5 C 216.5,256.5 281.5,256.5 346.5,256.5C 346.5,257.5 346.5,258.5 346.5,259.5C 281.5,259.5 216.5,259.5 151.5,259.5C 151.5,258.5 151.5,257.5 151.5,256.5 Z"/></g>
<g><path style="opacity:1" fill="#696969" d="M 151.5,256.5 C 151.5,257.5 151.5,258.5 151.5,259.5C 216.5,259.5 281.5,259.5 346.5,259.5C 281.335,260.499 216.002,260.832 150.5,260.5C 150.232,258.901 150.566,257.568 151.5,256.5 Z"/></g>
<g><path style="opacity:1" fill="#000000" d="M 151.5,276.5 C 216.5,276.5 281.5,276.5 346.5,276.5C 346.5,277.833 346.5,279.167 346.5,280.5C 281.5,280.5 216.5,280.5 151.5,280.5C 151.5,279.167 151.5,277.833 151.5,276.5 Z"/></g>
<g><path style="opacity:1" fill="#646464" d="M 346.5,297.5 C 281.5,297.5 216.5,297.5 151.5,297.5C 151.5,298.5 151.5,299.5 151.5,300.5C 150.566,299.432 150.232,298.099 150.5,296.5C 216.002,296.168 281.335,296.501 346.5,297.5 Z"/></g>
<g><path style="opacity:1" fill="#000000" d="M 346.5,297.5 C 346.5,298.5 346.5,299.5 346.5,300.5C 281.5,300.5 216.5,300.5 151.5,300.5C 151.5,299.5 151.5,298.5 151.5,297.5C 216.5,297.5 281.5,297.5 346.5,297.5 Z"/></g>
<g><path style="opacity:1" fill="#0f0f0f" d="M 151.5,317.5 C 216.5,317.5 281.5,317.5 346.5,317.5C 346.5,318.833 346.5,320.167 346.5,321.5C 281.5,321.5 216.5,321.5 151.5,321.5C 151.5,320.167 151.5,318.833 151.5,317.5 Z"/></g>
<g><path style="opacity:1" fill="#0e0e0e" d="M 151.5,337.5 C 216.5,337.5 281.5,337.5 346.5,337.5C 346.5,338.833 346.5,340.167 346.5,341.5C 281.5,341.5 216.5,341.5 151.5,341.5C 151.5,340.167 151.5,338.833 151.5,337.5 Z"/></g>
<g><path style="opacity:1" fill="#000000" d="M 151.5,358.5 C 216.5,358.5 281.5,358.5 346.5,358.5C 346.5,359.5 346.5,360.5 346.5,361.5C 281.5,361.5 216.5,361.5 151.5,361.5C 151.5,360.5 151.5,359.5 151.5,358.5 Z"/></g>
<g><path style="opacity:1" fill="#696969" d="M 151.5,358.5 C 151.5,359.5 151.5,360.5 151.5,361.5C 216.5,361.5 281.5,361.5 346.5,361.5C 281.335,362.499 216.002,362.832 150.5,362.5C 150.232,360.901 150.566,359.568 151.5,358.5 Z"/></g>
<g><path style="opacity:1" fill="#000000" d="M 151.5,378.5 C 216.5,378.5 281.5,378.5 346.5,378.5C 346.5,379.833 346.5,381.167 346.5,382.5C 281.5,382.5 216.5,382.5 151.5,382.5C 151.5,381.167 151.5,379.833 151.5,378.5 Z"/></g>
<g><path style="opacity:1" fill="#6b6b6b" d="M 122.5,423.5 C 122.5,423.167 122.5,422.833 122.5,422.5C 207.167,422.5 291.833,422.5 376.5,422.5C 376.5,422.833 376.5,423.167 376.5,423.5C 373.5,423.5 370.5,423.5 367.5,423.5C 367.737,424.791 367.404,425.791 366.5,426.5C 366.5,425.5 366.5,424.5 366.5,423.5C 288.5,423.5 210.5,423.5 132.5,423.5C 132.5,424.5 132.5,425.5 132.5,426.5C 131.596,425.791 131.263,424.791 131.5,423.5C 128.5,423.5 125.5,423.5 122.5,423.5 Z"/></g>
<g><path style="opacity:1" fill="#000000" d="M 122.5,423.5 C 125.5,423.5 128.5,423.5 131.5,423.5C 131.263,424.791 131.596,425.791 132.5,426.5C 210.5,426.5 288.5,426.5 366.5,426.5C 367.404,425.791 367.737,424.791 367.5,423.5C 370.5,423.5 373.5,423.5 376.5,423.5C 376.5,427.833 376.5,432.167 376.5,436.5C 291.833,436.5 207.167,436.5 122.5,436.5C 122.5,432.167 122.5,427.833 122.5,423.5 Z"/></g>
<g><path style="opacity:1" fill="#fefffe" d="M 366.5,426.5 C 288.5,426.5 210.5,426.5 132.5,426.5C 132.5,425.5 132.5,424.5 132.5,423.5C 210.5,423.5 288.5,423.5 366.5,423.5C 366.5,424.5 366.5,425.5 366.5,426.5 Z"/></g>
</svg>
