<svg version="1.1" id="Layer_1" xmlns="http://www.w3.org/2000/svg" xmlns:xlink="http://www.w3.org/1999/xlink" x="0px" y="0px"
	 width="100%" viewBox="0 0 496 496" enable-background="new 0 0 496 496" xml:space="preserve">
<path fill="#000000" opacity="1.000000" stroke="none" 
	d="
M174.000000,144.061859 
	C237.055176,144.062469 299.610352,144.062469 362.325836,144.062469 
	C361.953217,142.199966 360.884705,141.917603 360.084961,141.446228 
	C351.236725,136.231155 351.978760,138.387802 357.180664,128.541306 
	C358.667328,125.727203 360.298340,125.120750 363.127045,126.810257 
	C370.990417,131.506897 379.024567,135.918854 386.863342,140.654953 
	C390.849487,143.063354 394.927460,144.180862 399.620941,144.107742 
	C412.779785,143.902802 425.944489,143.931396 439.105408,144.042892 
	C454.852875,144.176285 464.257446,153.674423 464.278290,169.349579 
	C464.313934,196.173203 464.293640,222.996887 464.294830,249.820557 
	C464.296051,276.810822 463.825653,303.812256 464.465698,330.787323 
	C464.868042,347.744659 452.556732,357.627808 437.994568,357.568817 
	C338.032288,357.163910 238.067520,357.365204 138.103561,357.371307 
	C135.625656,357.371460 133.147751,357.371338 130.559372,357.371338 
	C130.729828,359.160431 132.183380,359.169373 132.993774,359.706329 
	C140.192688,364.476166 140.465500,367.202393 134.592117,374.036591 
	C132.656250,376.289154 131.075165,375.049622 129.366959,374.068634 
	C120.990913,369.258484 112.584419,364.498077 104.295761,359.541077 
	C101.598228,357.927826 98.886513,357.299469 95.786125,357.326294 
	C84.457779,357.424377 73.127892,357.386261 61.798786,357.345520 
	C47.465462,357.294006 37.748238,347.574005 37.715714,333.091492 
	C37.653973,305.601501 37.700020,278.111328 37.698612,250.621231 
	C37.697227,223.630951 37.681274,196.640686 37.693478,169.650406 
	C37.700737,153.593842 46.957317,144.115509 63.041248,144.076279 
	C99.860626,143.986465 136.680389,144.056259 174.000000,144.061859 
M100.448837,340.115448 
	C111.154160,334.176483 121.859482,328.237518 133.281723,321.900818 
	C82.843155,320.843475 58.383823,279.105438 60.673992,246.687057 
	C63.111923,212.177002 88.373489,183.331665 126.088737,180.049759 
	C159.554657,177.137634 193.138565,199.371887 200.843842,236.582947 
	C204.432434,253.913361 201.777023,270.415741 192.948227,285.730011 
	C180.301224,307.667297 160.702194,319.000153 135.840683,321.702667 
	C136.050308,325.032440 137.706314,327.236450 139.109497,329.389893 
	C141.374298,332.865570 140.331024,334.715240 136.896332,336.302826 
	C134.078613,337.605255 131.461517,339.341675 128.755493,340.885712 
	C128.890869,341.140869 129.026245,341.395996 129.161606,341.651123 
	C130.490219,341.651123 131.818832,341.651093 133.147446,341.651123 
	C233.961349,341.652344 334.775238,341.656555 435.589142,341.650299 
	C445.811096,341.649689 448.579132,338.841492 448.582245,328.559113 
	C448.597961,277.069061 448.609131,225.579025 448.613678,174.088989 
	C448.613831,172.257782 448.696381,170.403702 448.451447,168.599503 
	C447.576996,162.157379 445.457825,160.265640 438.958160,160.241333 
	C424.961060,160.189026 410.963470,160.256500 396.966461,160.194122 
	C394.369995,160.182541 392.129608,160.869598 389.880524,162.144562 
	C381.042206,167.154816 372.139893,172.052826 363.232391,176.939697 
	C361.720123,177.769348 359.869659,179.517471 358.392365,177.383362 
	C356.237976,174.271179 353.277954,171.111740 353.349915,167.313889 
	C353.400879,164.624405 357.389832,164.371002 359.480652,162.829193 
	C360.368011,162.174820 361.345093,161.642090 363.574738,160.241852 
	C360.521332,160.241852 358.931732,160.241959 357.342133,160.241837 
	C259.694305,160.234360 162.046494,160.224274 64.398666,160.223984 
	C55.960873,160.223969 53.435371,162.607330 53.425575,171.287689 
	C53.365574,224.443954 53.371979,277.600342 53.424789,330.756622 
	C53.432468,338.487335 56.695919,341.590057 64.479996,341.639404 
	C74.311028,341.701721 84.142784,341.642487 93.974182,341.661224 
	C95.992798,341.665070 97.978798,341.618011 100.448837,340.115448 
M193.894470,256.605499 
	C195.313507,250.266510 194.351288,243.930023 193.041031,237.811356 
	C186.707962,208.237106 162.910873,189.079422 132.595505,187.950943 
	C93.948349,186.512314 61.323528,222.824448 69.932732,264.309570 
	C75.483604,291.057495 103.866013,318.006775 140.085892,312.952179 
	C168.110565,309.041260 191.925125,285.048950 193.894470,256.605499 
z"/>
<path fill="#000000" opacity="1.000000" stroke="none" 
	d="
M303.662903,249.062683 
	C304.052643,215.244583 330.339233,185.485794 363.645020,180.675735 
	C401.503937,175.208099 435.923767,199.338364 443.980255,236.995285 
	C452.130035,275.088409 425.316833,314.088531 386.650482,320.382019 
	C345.515564,327.077271 308.457947,299.207397 303.826843,258.031219 
	C303.511993,255.231979 303.704895,252.375626 303.662903,249.062683 
M435.521820,235.030121 
	C428.546448,206.301758 398.667267,180.621429 358.876038,189.640442 
	C332.981079,195.509735 307.805450,222.176712 312.066284,258.718658 
	C315.910339,291.685852 348.773865,320.816650 387.798645,312.114258 
	C423.012878,304.261597 443.307007,271.206146 435.521820,235.030121 
z"/>
<path fill="#000000" opacity="1.000000" stroke="none" 
	d="
M292.428345,212.621140 
	C299.266663,217.891830 299.225006,220.273651 292.516815,225.302170 
	C288.123474,228.595444 283.753326,231.919937 279.339233,235.185059 
	C276.641510,237.180527 273.649017,238.745850 270.962372,235.521210 
	C268.290680,232.314575 270.109039,229.678940 272.835632,227.461365 
	C273.730072,226.733917 274.562958,225.930817 275.501068,225.093506 
	C274.122864,223.636002 272.552612,224.266357 271.189270,224.261841 
	C252.217377,224.199081 233.245026,224.142075 214.273499,224.232407 
	C210.487564,224.250443 208.417694,223.476318 208.524780,219.009567 
	C208.618881,215.085342 209.990021,213.762436 213.820435,213.791397 
	C228.797379,213.904663 243.775864,213.809433 258.753784,213.794952 
	C264.030548,213.789856 269.307343,213.794144 274.566589,213.794144 
	C274.836700,211.483154 273.251099,211.094940 272.375275,210.270126 
	C269.943115,207.979660 268.438202,205.444809 270.979004,202.490982 
	C273.469910,199.595215 276.288879,200.528717 278.948303,202.527451 
	C283.338043,205.826599 287.736572,209.114029 292.428345,212.621140 
z"/>
<path fill="#000000" opacity="1.000000" stroke="none" 
	d="
M261.999878,297.378967 
	C251.101440,297.379242 240.702988,297.379242 230.080917,297.379242 
	C230.836441,300.231842 233.069595,300.748749 234.328354,302.206635 
	C236.098694,304.257019 237.103195,306.423553 235.133530,308.903442 
	C233.273560,311.245239 230.859299,311.660217 228.521454,309.984833 
	C222.306290,305.530853 216.029434,301.120270 210.192032,296.200165 
	C207.342361,293.798340 207.842178,290.429504 210.912247,288.068848 
	C216.317322,283.912781 221.823303,279.887146 227.314667,275.844452 
	C230.023956,273.849884 232.881149,273.176758 235.188629,276.258057 
	C237.525146,279.378143 235.845886,281.844269 233.326172,283.969025 
	C232.243057,284.882355 231.195282,285.837585 229.976562,286.910095 
	C232.081848,288.100922 233.934723,287.618103 235.693527,287.622559 
	C254.491821,287.670349 273.291168,287.761566 292.087952,287.588837 
	C296.315857,287.549988 297.565063,289.078064 297.420807,293.116577 
	C297.303589,296.396606 296.099304,297.434418 292.942749,297.398102 
	C282.796417,297.281464 272.647705,297.369568 261.999878,297.378967 
z"/>
</svg>