<svg version="1.1" id="Layer_1" xmlns="http://www.w3.org/2000/svg" xmlns:xlink="http://www.w3.org/1999/xlink" x="0px" y="0px"
	 width="100%" viewBox="0 0 496 496" enable-background="new 0 0 496 496" xml:space="preserve">
<path fill="#000000" opacity="1.000000" stroke="none" 
	d="
M343.582275,267.351990 
	C340.543335,290.138977 330.587799,308.921387 314.205566,324.213287 
	C299.970978,337.500519 283.118439,346.223053 263.846130,348.925812 
	C234.139664,353.091827 207.319107,345.842010 184.673935,325.645935 
	C166.549866,309.482056 155.930145,289.178925 153.652603,264.929108 
	C149.685669,222.691711 167.165634,191.040009 203.232834,170.053360 
	C242.523697,147.190918 295.287811,158.593262 323.397003,194.473587 
	C340.209839,215.934586 346.541809,240.070236 343.582275,267.351990 
M277.186646,171.382050 
	C269.881744,169.061081 262.478790,167.514236 254.770111,166.960449 
	C250.026199,166.619644 249.222733,168.208496 249.249542,172.423767 
	C249.408218,197.385559 249.321182,222.348846 249.354218,247.311584 
	C249.356110,248.743301 248.876801,250.297211 250.111404,251.819214 
	C250.647354,251.638870 251.313049,251.560791 251.806763,251.227768 
	C273.599304,236.528000 295.359070,221.779587 317.177399,207.118240 
	C320.010162,205.214691 319.814636,203.484909 317.942780,201.023972 
	C307.488281,187.279358 294.319122,177.276108 277.186646,171.382050 
z"/>
</svg>