<svg version="1.1" id="Layer_1" xmlns="http://www.w3.org/2000/svg" xmlns:xlink="http://www.w3.org/1999/xlink" x="0px" y="0px"
	 width="100%" viewBox="0 0 496 496" enable-background="new 0 0 496 496" xml:space="preserve">
<path fill="#000000" opacity="1.000000" stroke="none" 
	d="
M394.710571,243.497360 
	C402.186340,266.859772 404.301819,290.190125 400.618683,314.185455 
	C396.529907,340.823486 386.374908,364.792877 369.541595,385.601166 
	C345.528351,415.284790 314.764252,434.114441 276.738342,440.416473 
	C245.013306,445.674286 214.527435,441.931366 185.524551,427.848389 
	C147.890594,409.574463 122.284431,380.437103 107.999504,341.219391 
	C100.651810,321.047058 97.979607,300.077576 99.895203,278.888062 
	C103.713585,236.650497 122.174118,201.434250 154.671326,174.274246 
	C176.248627,156.240662 201.397720,145.404175 229.536407,141.494690 
	C268.356232,136.101212 304.137756,144.326416 336.335327,166.028976 
	C364.313477,184.887482 383.892639,210.828186 394.710571,243.497360 
M314.228516,216.689041 
	C323.141266,210.469543 332.843201,205.368607 341.558929,198.160812 
	C320.436157,177.923141 295.919098,166.378738 267.724884,162.385956 
	C263.616119,161.804092 262.143646,163.316925 262.255249,167.564545 
	C262.517792,177.556808 262.218719,187.562851 262.401154,197.558670 
	C262.468872,201.269333 261.139252,202.628632 257.468231,202.435562 
	C253.146988,202.208298 248.796448,202.203339 244.474731,202.421616 
	C240.765442,202.608963 239.524948,201.151962 239.591858,197.489777 
	C239.768387,187.827271 239.656998,178.159164 239.628494,168.493378 
	C239.609955,162.204468 238.778671,161.593033 232.701721,162.530930 
	C218.632599,164.702332 205.142776,168.696228 192.488297,175.268326 
	C183.830475,179.764740 175.372421,184.597076 168.016449,191.672180 
	C169.462662,193.240067 170.537567,194.483673 171.693924,195.646271 
	C178.862625,202.853668 185.992065,210.101807 193.264633,217.203186 
	C195.530762,219.416000 195.857910,221.084137 193.362106,223.359390 
	C189.794250,226.612015 186.368561,230.038330 183.082703,233.576706 
	C180.631042,236.216782 178.822159,235.752731 176.512802,233.334091 
	C171.220459,227.791351 165.768066,222.397079 160.266083,217.060654 
	C157.320938,214.204117 154.844696,210.803360 150.416718,208.124542 
	C150.022751,208.865219 149.728531,209.682129 149.221481,210.333298 
	C134.599915,229.110458 125.504356,250.147339 122.067322,273.804993 
	C121.232185,279.553406 123.155411,279.801117 127.556488,279.711365 
	C137.218277,279.514252 146.892975,279.855713 156.550156,279.567261 
	C161.056015,279.432678 162.503082,281.148773 162.213684,285.389648 
	C161.975967,288.873016 162.177109,292.385712 162.168533,295.885376 
	C162.151627,302.793152 162.029739,302.946960 155.238770,302.971832 
	C145.406433,303.007843 135.573746,302.963806 125.741524,303.013245 
	C123.320366,303.025452 121.171532,303.008514 121.698654,306.831390 
	C123.830597,322.292999 128.216385,337.043091 135.394150,350.873962 
	C139.658051,359.089996 144.296494,367.155548 150.928238,373.496490 
	C153.195419,372.987091 154.209351,371.579376 155.371475,370.422150 
	C162.337631,363.485352 169.391235,356.629425 176.151199,349.495911 
	C178.863098,346.634155 180.795090,346.449127 183.436188,349.406403 
	C186.429092,352.757599 189.581863,356.005493 192.959412,358.962128 
	C196.092438,361.704712 195.473557,363.596985 192.731934,366.217651 
	C185.626221,373.009888 178.757248,380.051178 171.851303,387.049835 
	C170.625000,388.292603 168.819519,389.222290 168.801575,391.984924 
	C169.154007,392.238586 169.851105,392.700287 170.504959,393.216766 
	C189.483490,408.207153 210.954041,417.316101 234.921005,420.559265 
	C238.360947,421.024719 239.743469,419.697601 239.694138,416.146942 
	C239.552933,405.983093 239.757263,395.814178 239.588562,385.651184 
	C239.529724,382.106262 240.474365,380.389435 244.337936,380.597595 
	C248.824493,380.839264 253.340775,380.805634 257.831482,380.606201 
	C261.380829,380.448517 262.425690,381.967041 262.380768,385.337952 
	C262.243134,395.668457 262.455688,406.003876 262.294464,416.333679 
	C262.236481,420.049805 263.820496,421.026398 267.151215,420.549957 
	C283.779022,418.171478 299.536865,413.179321 314.127625,404.785339 
	C320.987701,400.838776 327.905609,396.916992 333.738831,390.910309 
	C332.210022,389.273407 331.010529,387.917236 329.735718,386.635986 
	C322.800873,379.666229 315.917297,372.642975 308.862427,365.796448 
	C306.402191,363.408905 306.217651,361.621613 308.820160,359.237030 
	C312.379608,355.975555 315.785126,352.528198 319.055756,348.975616 
	C321.310425,346.526611 323.062286,346.781189 325.258575,349.029114 
	C332.361694,356.299194 339.553131,363.483795 346.775085,370.636200 
	C348.010559,371.859741 348.870422,373.714050 351.352417,373.852051 
	C366.745972,355.132446 376.320587,333.733185 379.627350,309.583405 
	C380.529449,302.995239 380.313049,302.963013 373.589417,302.957703 
	C364.090271,302.950165 354.590607,302.889526 345.092194,302.970337 
	C341.338165,303.002289 339.577393,301.552826 339.784637,297.622620 
	C339.994995,293.633789 340.070282,289.608978 339.782379,285.630463 
	C339.457184,281.137573 340.975403,279.416595 345.688232,279.558167 
	C355.844757,279.863251 366.017059,279.658997 376.182800,279.631897 
	C378.600006,279.625458 380.798615,279.791656 380.270355,275.915222 
	C378.140594,260.286072 373.784607,245.375183 366.457764,231.400497 
	C360.569458,220.169632 353.504974,209.767609 343.958130,200.794876 
	C343.137970,201.820648 342.468750,202.524429 341.950012,203.325653 
	C320.220795,236.886429 298.376740,270.373901 276.850159,304.064270 
	C268.116516,317.732971 250.635162,322.215851 237.252747,313.533264 
	C224.080048,304.986755 220.575500,287.138611 229.335571,273.901398 
	C233.414291,267.738129 240.019638,265.190552 245.871765,261.421783 
	C268.563599,246.808182 291.063171,231.896072 314.228516,216.689041 
z"/>
<path fill="#000000" opacity="1.000000" stroke="none" 
	d="
M216.948669,71.317505 
	C222.749252,57.080288 232.878891,48.821804 247.921799,47.759323 
	C264.109863,46.615967 276.592560,53.249908 283.577271,68.094643 
	C289.823120,81.369125 288.508484,94.516930 279.140503,105.996704 
	C275.488464,110.472008 273.549805,114.801384 274.353333,120.398796 
	C275.014832,125.006744 273.032104,126.435860 268.474213,126.331932 
	C256.668091,126.062721 244.849716,126.112228 233.040649,126.304810 
	C228.939789,126.371689 227.120651,124.966782 227.652435,120.843506 
	C228.416428,114.919693 226.453491,110.290558 222.544022,105.567772 
	C214.301285,95.610176 213.024368,83.955330 216.948669,71.317505 
M225.448364,95.053619 
	C226.061340,95.681061 226.843994,95.598526 226.913956,94.816193 
	C227.289078,90.621399 230.094864,90.584167 233.319626,90.614861 
	C244.287262,90.719284 255.259399,90.797630 266.223907,90.583481 
	C271.238037,90.485535 275.762970,90.301895 274.800781,97.850006 
	C280.214996,89.025124 280.468079,80.253754 276.431946,71.546463 
	C270.038239,57.753082 253.584335,51.757988 239.724792,57.801437 
	C225.694595,63.919292 219.514160,79.472931 225.448364,95.053619 
z"/>
<path fill="#000000" opacity="1.000000" stroke="none" 
	d="
M380.332550,194.230515 
	C377.729248,195.111084 376.763702,193.160858 375.550079,191.964691 
	C367.017181,183.554214 358.631775,174.992676 350.024658,166.659744 
	C347.373657,164.093185 347.332520,162.433960 350.035065,159.796112 
	C360.632202,149.452713 371.080383,138.952667 381.403534,128.335495 
	C383.866791,125.802086 385.437042,125.784737 387.861084,128.276199 
	C396.447693,137.101517 405.148865,145.817932 413.935913,154.443909 
	C416.386749,156.849762 416.431885,158.567871 413.940460,161.003983 
	C402.757263,171.938797 391.715515,183.018265 380.332550,194.230515 
z"/>
<path fill="#000000" opacity="1.000000" stroke="none" 
	d="
M95.559479,168.440613 
	C92.307426,164.671066 86.473083,162.176163 86.464584,157.906555 
	C86.455620,153.397110 92.207672,150.680008 95.429092,147.181656 
	C102.286194,139.735031 109.333565,132.463608 116.073036,125.362633 
	C120.248268,127.517868 122.095207,130.155212 124.311348,132.346909 
	C133.192261,141.129822 141.838501,150.158218 150.922012,158.724152 
	C154.700836,162.287643 154.416153,164.537338 150.826157,167.928421 
	C142.475388,175.816483 134.344482,183.949158 126.382736,192.230988 
	C123.495346,195.234451 121.766182,194.698685 119.143860,191.987274 
	C111.504089,184.087906 103.608589,176.435867 95.559479,168.440613 
z"/>
</svg>