<svg version="1.1" id="Layer_1" xmlns="http://www.w3.org/2000/svg" xmlns:xlink="http://www.w3.org/1999/xlink" x="0px" y="0px"
	 width="100%" viewBox="0 0 500 500" enable-background="new 0 0 500 500" xml:space="preserve">
<path fill="none" opacity="1.000000" stroke="#000000" stroke-linecap="round" stroke-linejoin="round" stroke-width="5.000000"
	d="
M364.500000,366.000000 
	C362.952179,364.387482 363.453857,362.357574 363.532166,360.501343 
	C364.073212,347.672424 364.106659,334.769226 364.007111,322.003845 
	C363.895569,307.698517 363.846649,293.331909 363.572296,278.998627 
	C363.259735,262.671265 363.500000,246.333328 363.500000,230.000000 
	C363.500000,211.666672 363.500000,193.333328 363.500000,175.000000 
	C363.500000,160.166672 363.505829,145.333328 363.492218,130.500000 
	C363.490631,128.739670 363.798828,126.939796 362.898682,125.250000 
	C284.499634,125.250000 205.999557,125.250000 127.250000,125.250000 
	C127.250000,216.500000 127.250000,307.500000 127.250000,399.000000 
	C132.321991,399.000000 137.160995,399.000000 142.000000,399.000000 
	C182.666672,399.000000 223.333374,398.971100 263.999908,399.043732 
	C268.167175,399.051178 272.388519,399.349609 276.488983,400.063263 
	C286.266754,401.765045 295.736206,398.138824 305.510864,398.850861 
	C314.960724,399.539215 324.500000,399.000000 334.000000,399.000000 
	C343.667389,399.000000 353.334778,399.000000 363.500000,399.000000 
	C363.500000,389.672791 363.486572,380.586365 363.512115,371.500031 
	C363.516815,369.825409 363.171265,368.088287 364.026489,366.514404 
	C364.172394,366.245880 364.653961,366.109650 365.006897,366.030975 
	C365.130280,366.003479 365.333313,366.333344 365.500000,366.500000 
"/>
<path fill="none" opacity="1.000000" stroke="#000000" stroke-linecap="round" stroke-linejoin="round" stroke-width="4.000000"
	d="
M365.000000,169.000000 
	C375.609100,170.208405 386.033173,172.467819 396.506653,174.465057 
	C403.233002,175.747742 410.023773,176.692856 417.305054,177.873520 
	C415.676636,186.558289 414.002899,195.014175 412.515717,203.502747 
	C407.640625,231.328766 402.877167,259.174347 397.987518,286.997803 
	C393.211517,314.174530 388.341858,341.334869 383.497559,368.499573 
	C379.009186,393.668304 374.489838,418.831543 370.018188,444.003235 
	C369.637634,446.145447 367.839630,448.333344 370.000000,450.500000 
"/>
<path fill="none" opacity="1.000000" stroke="#000000" stroke-linecap="round" stroke-linejoin="round" stroke-width="4.000000"
	d="
M137.000000,400.000000 
	C136.822006,401.998993 136.644028,403.997955 136.437729,406.314758 
	C141.243530,408.972961 146.816605,408.923370 152.020996,409.886566 
	C179.665588,415.002899 207.405518,419.584137 235.015640,424.919037 
	C254.434692,428.671295 274.006714,431.628052 293.497742,435.013000 
	C307.509338,437.446289 321.493500,440.037170 335.502106,442.488007 
	C346.324921,444.381470 357.166656,446.166687 368.000000,448.000000 
"/>
<path fill="none" opacity="1.000000" stroke="#000000" stroke-linecap="round" stroke-linejoin="round" stroke-width="5.000000"
	d="
M345.000000,227.000000 
	C293.000000,227.000000 241.000000,227.000000 189.000000,227.000000 
"/>
<path fill="none" opacity="1.000000" stroke="#000000" stroke-linecap="round" stroke-linejoin="round" stroke-width="5.000000"
	d="
M345.000000,275.000000 
	C293.000000,275.000000 241.000000,275.000000 189.000000,275.000000 
"/>
<path fill="none" opacity="1.000000" stroke="#000000" stroke-linecap="round" stroke-linejoin="round" stroke-width="5.000000"
	d="
M345.000000,179.000000 
	C293.000000,179.000000 241.000000,179.000000 189.000000,179.000000 
"/>
<path fill="none" opacity="1.000000" stroke="#000000" stroke-linecap="round" stroke-linejoin="round" stroke-width="5.000000"
	d="
M345.000000,319.000000 
	C293.000000,319.000000 241.000000,319.000000 189.000000,319.000000 
"/>
<path fill="none" opacity="1.000000" stroke="#000000" stroke-linecap="round" stroke-linejoin="round" stroke-width="5.000000"
	d="
M345.000000,365.000000 
	C293.000000,365.000000 241.000000,365.000000 189.000000,365.000000 
"/>
<path fill="none" opacity="1.000000" stroke="#000000" stroke-linecap="round" stroke-linejoin="round" stroke-width="5.000000"
	d="
M312.500000,205.500000 
	C311.646179,204.456192 310.487122,205.031677 309.499969,205.030762 
	C270.500000,204.994583 231.500000,204.994598 192.500031,205.030762 
	C191.512863,205.031677 190.353806,204.456192 189.500000,205.500000 
"/>
<path fill="none" opacity="1.000000" stroke="#000000" stroke-linecap="round" stroke-linejoin="round" stroke-width="5.000000"
	d="
M312.000000,253.000000 
	C271.333344,253.000000 230.666672,253.000000 190.000000,253.000000 
"/>
<path fill="none" opacity="1.000000" stroke="#000000" stroke-linecap="round" stroke-linejoin="round" stroke-width="5.000000"
	d="
M310.000000,301.000000 
	C269.666656,301.000000 229.333328,301.000000 189.000000,301.000000 
"/>
<path fill="none" opacity="1.000000" stroke="#000000" stroke-linecap="round" stroke-linejoin="round" stroke-width="5.000000"
	d="
M310.000000,155.000000 
	C269.666656,155.000000 229.333328,155.000000 189.000000,155.000000 
"/>
<path fill="none" opacity="1.000000" stroke="#000000" stroke-linecap="round" stroke-linejoin="round" stroke-width="5.000000"
	d="
M310.000000,347.000000 
	C269.666656,347.000000 229.333328,347.000000 189.000000,347.000000 
"/>
<path fill="none" opacity="1.000000" stroke="#000000" stroke-linecap="round" stroke-linejoin="round" stroke-width="5.000000"
	d="
M173.750000,160.000000 
	C173.323395,158.502838 172.896774,157.005676 172.396515,155.250000 
	C164.166672,155.250000 155.833328,155.250000 147.250000,155.250000 
	C147.250000,163.166672 147.250000,170.833328 147.250000,178.750000 
	C155.833328,178.750000 164.166672,178.750000 172.394287,178.750000 
	C174.438721,172.758408 171.116898,166.716202 173.500000,161.000000 
"/>
<path fill="none" opacity="1.000000" stroke="#000000" stroke-linecap="round" stroke-linejoin="round" stroke-width="5.000000"
	d="
M173.750000,208.000000 
	C173.165070,205.137512 171.852493,203.740845 168.495255,203.899887 
	C161.506973,204.231018 154.492065,204.000000 147.250000,204.000000 
	C147.250000,212.166672 147.250000,219.833328 147.250000,227.750000 
	C155.833328,227.750000 164.166672,227.750000 172.425888,227.750000 
	C174.317307,221.413544 171.313766,215.066513 173.500000,209.000000 
"/>
<path fill="none" opacity="1.000000" stroke="#000000" stroke-linecap="round" stroke-linejoin="round" stroke-width="5.000000"
	d="
M173.749985,257.000000 
	C173.323380,255.502838 172.896774,254.005676 172.396500,252.250000 
	C164.337585,252.250000 156.170074,252.250000 147.750000,252.250000 
	C147.750000,260.083344 147.750000,267.916656 147.750000,275.750000 
	C156.170074,275.750000 164.337585,275.750000 172.394287,275.750000 
	C174.438721,269.758392 171.116898,263.716217 173.500000,258.000000 
"/>
<path fill="none" opacity="1.000000" stroke="#000000" stroke-linecap="round" stroke-linejoin="round" stroke-width="5.000000"
	d="
M288.500000,402.000000 
	C291.155762,405.258545 295.204224,404.166718 298.531525,404.845490 
	C314.799408,408.164062 331.261993,410.457977 347.538086,413.815308 
	C350.229095,414.370331 353.088562,415.330475 356.000000,415.000000 
"/>
<path fill="none" opacity="1.000000" stroke="#000000" stroke-linecap="round" stroke-linejoin="round" stroke-width="5.000000"
	d="
M365.000000,224.000000 
	C372.000000,225.333328 378.983459,226.766724 386.011658,227.929520 
	C387.765656,228.219711 389.747070,228.551041 391.500000,227.500000 
"/>
<path fill="none" opacity="1.000000" stroke="#000000" stroke-linecap="round" stroke-linejoin="round" stroke-width="5.000000"
	d="
M365.000000,273.000000 
	C370.506378,274.136597 376.311188,273.866302 381.500000,276.500000 
"/>
<path fill="none" opacity="1.000000" stroke="#000000" stroke-linecap="round" stroke-linejoin="round" stroke-width="4.000000"
	d="
M184.500000,248.500000 
	C180.835526,251.308105 178.802094,256.019104 174.000000,257.500000 
"/>
<path fill="none" opacity="1.000000" stroke="#000000" stroke-linecap="round" stroke-linejoin="round" stroke-width="4.000000"
	d="
M184.000000,152.000000 
	C180.503799,154.641724 178.618332,159.178421 174.000000,160.500000 
"/>
<path fill="none" opacity="1.000000" stroke="#000000" stroke-linecap="round" stroke-linejoin="round" stroke-width="4.000000"
	d="
M183.500000,200.500000 
	C180.230423,203.044464 178.383179,207.277939 174.000000,208.500000 
"/>
<path fill="none" opacity="1.000000" stroke="#000000" stroke-linecap="round" stroke-linejoin="round" stroke-width="5.000000"
	d="
M365.000000,322.000000 
	C368.233032,321.702942 371.229034,323.657379 374.500000,323.000000 
"/>
<path fill="none" opacity="1.000000" stroke="#000000" stroke-linecap="round" stroke-linejoin="round" stroke-width="4.000000"
	d="
M154.499985,212.500015 
	C157.032059,215.468582 159.564133,218.437149 161.865356,221.135071 
	C166.285233,218.715393 167.864670,214.859482 171.500000,213.500000 
"/>
<path fill="none" opacity="1.000000" stroke="#000000" stroke-linecap="round" stroke-linejoin="round" stroke-width="4.000000"
	d="
M171.500000,165.500000 
	C167.589706,166.406265 165.540955,169.890045 162.398697,172.399643 
	C159.504730,169.505356 156.752365,166.752686 154.000000,164.000000 
"/>
<path fill="none" opacity="1.000000" stroke="#000000" stroke-linecap="round" stroke-linejoin="round" stroke-width="4.000000"
	d="
M154.500000,260.500000 
	C157.032089,263.468567 159.564163,266.437134 161.904800,269.181244 
	C165.955139,266.672577 168.127487,263.736145 171.500000,262.500000 
"/>
<path fill="none" opacity="1.000000" stroke="#000000" stroke-linecap="round" stroke-linejoin="round" stroke-width="5.000000"
	d="
M148.500000,341.000000 
	C146.333298,345.877777 147.720566,351.005188 147.574310,356.002167 
	C147.311157,364.994476 147.500000,365.000000 156.500000,365.000000 
	C161.838516,365.000000 167.177032,365.000000 172.750000,365.000000 
	C172.750000,356.833344 172.750000,349.166656 172.750000,341.000000 
	C164.673752,341.000000 156.836884,341.000000 149.000000,341.000000 
"/>
<path fill="none" opacity="1.000000" stroke="#000000" stroke-linecap="round" stroke-linejoin="round" stroke-width="5.000000"
	d="
M150.000000,296.000000 
	C148.403458,296.621521 147.488663,297.702606 147.493179,299.500031 
	C147.510162,306.254089 147.500000,313.008240 147.500000,319.750000 
	C156.170074,319.750000 164.337585,319.750000 172.750000,319.750000 
	C172.750000,311.833344 172.750000,304.166656 172.750000,296.000000 
	C165.174240,296.000000 157.837112,296.000000 150.500000,296.000000 
"/>
</svg>