<svg version="1.1" id="Layer_1" xmlns="http://www.w3.org/2000/svg" xmlns:xlink="http://www.w3.org/1999/xlink" x="0px" y="0px"
	 width="100%" viewBox="0 0 496 496" enable-background="new 0 0 496 496" xml:space="preserve">
<path fill="#000000" opacity="1.000000" stroke="none" 
	d="
M325.369232,433.173767 
	C324.055115,439.243683 323.951111,445.132080 321.721985,451.176727 
	C313.147919,449.769806 304.673859,448.434082 296.219727,446.982300 
	C264.133484,441.472168 232.055023,435.916901 199.971115,430.393097 
	C167.396210,424.784729 134.796371,419.317139 102.252846,413.532471 
	C89.718971,411.304535 77.155083,410.712982 64.481750,410.938965 
	C55.651482,411.096405 46.813663,410.849030 37.984295,411.030060 
	C33.867039,411.114471 32.096268,409.541931 32.621918,405.439819 
	C32.705967,404.783966 32.633068,404.108063 32.633110,403.441406 
	C32.638920,305.277771 32.644165,207.114166 32.651802,108.950546 
	C32.652370,101.650108 32.660362,101.647797 40.032780,101.648071 
	C124.196808,101.651253 208.360840,101.654381 292.524872,101.660301 
	C300.148499,101.660835 300.147766,101.669769 300.153259,109.445015 
	C300.157990,116.111420 300.255676,122.779518 300.131866,129.443512 
	C300.070526,132.745804 301.456024,134.156998 304.696411,134.679810 
	C317.810547,136.795715 330.907501,139.029892 343.974091,141.420959 
	C347.288269,142.027435 348.863617,140.370712 350.472656,138.052170 
	C366.998291,114.239525 383.557556,90.450203 400.109070,66.655548 
	C405.911591,58.313843 411.805481,50.033710 417.474030,41.602005 
	C419.321075,38.854626 420.823700,38.053028 423.829285,40.177689 
	C439.609131,51.332531 455.457123,62.393322 471.403076,73.309120 
	C475.190887,75.902061 473.082947,77.930672 471.476440,80.234390 
	C452.130493,107.976555 432.776367,135.713013 413.430298,163.455093 
	C405.425446,174.933975 397.447937,186.431976 389.418396,197.893555 
	C388.574310,199.098404 387.554596,200.220703 386.450073,201.192291 
	C385.078491,202.398834 383.501709,203.368347 382.069244,204.510086 
	C375.447845,209.787582 366.323853,213.154205 362.543854,220.410736 
	C358.804504,227.589172 358.888458,236.792709 357.461853,245.136398 
	C352.284058,275.419464 347.189301,305.716705 342.038116,336.004333 
	C336.775269,366.948486 331.484650,397.887878 326.197845,428.827942 
	C325.973877,430.138733 325.665924,431.435150 325.369232,433.173767 
M331.886322,300.671021 
	C335.746643,278.284912 339.606995,255.898804 343.651611,232.444092 
	C332.830078,238.624557 322.891846,244.300552 311.889038,250.584518 
	C316.431671,217.182739 326.113251,186.818481 336.230042,156.346741 
	C335.030426,156.056564 333.602386,155.621384 332.142670,155.371597 
	C311.994446,151.923904 291.836304,148.533752 271.691406,145.066849 
	C224.190643,136.892044 176.691071,128.710022 129.206375,120.442619 
	C125.062088,119.721077 123.078926,120.923027 122.412613,125.178497 
	C120.537163,137.156418 118.406136,149.094269 116.378181,161.048340 
	C109.570206,201.178970 102.798317,241.315735 95.945442,281.438690 
	C89.847748,317.140137 83.680283,352.829651 77.482605,388.513855 
	C76.872101,392.028961 77.988182,393.657745 81.591629,394.214722 
	C89.964867,395.508850 98.284271,397.146851 106.638420,398.569641 
	C171.836945,409.673737 237.038986,420.757294 302.238525,431.855347 
	C309.527863,433.096100 309.436249,433.105164 310.659729,425.825928 
	C313.826172,406.987061 317.094116,388.165314 320.290222,369.331390 
	C324.124847,346.734772 327.927124,324.132629 331.886322,300.671021 
M52.726482,394.803741 
	C56.592827,394.762817 60.665287,395.892029 61.517807,389.724182 
	C63.221199,377.400513 65.546440,365.162445 67.636467,352.892700 
	C72.818970,322.468262 77.942993,292.033630 83.230225,261.627350 
	C86.333977,243.778015 89.367134,226.004898 88.746017,207.711029 
	C88.135956,189.742477 88.638412,171.736603 88.617996,153.747147 
	C88.614929,151.043900 88.743134,148.792419 92.432480,148.740433 
	C96.092293,148.688904 96.376015,150.819717 96.358368,153.593735 
	C96.304848,162.006104 96.339005,170.419022 96.339005,178.831711 
	C97.181717,178.156464 97.416588,177.416763 97.547577,176.659119 
	C100.658279,158.666718 103.553314,140.633072 106.998863,122.705208 
	C107.893456,118.050507 106.611336,117.217636 102.467659,117.253380 
	C86.644730,117.389847 70.819946,117.308372 54.995850,117.312035 
	C48.311069,117.313583 48.297546,117.317818 48.297447,123.794632 
	C48.296062,211.909836 48.298561,300.025055 48.302078,388.140259 
	C48.302124,389.306061 48.354755,390.472260 48.335976,391.637543 
	C48.296997,394.056122 49.710800,394.819244 52.726482,394.803741 
M435.500885,104.033211 
	C440.238373,97.191055 444.833160,90.243416 449.776703,83.553520 
	C452.070526,80.449463 451.418640,78.762032 448.442169,76.784332 
	C441.928406,72.456276 435.440491,68.058922 429.238220,63.303604 
	C425.394135,60.356339 423.456848,60.954700 420.719788,64.938469 
	C401.491272,92.925179 381.964264,120.706612 362.608490,148.606262 
	C360.575592,151.536484 357.971527,154.199265 356.902039,158.012344 
	C366.062683,164.345428 375.046844,170.556503 384.518463,177.104584 
	C401.613739,152.600006 418.349792,128.610321 435.500885,104.033211 
M247.472549,124.744904 
	C258.246185,126.658546 269.018188,128.581665 279.795929,130.471893 
	C280.929565,130.670715 282.486542,131.001068 283.039581,129.895248 
	C284.750122,126.474777 284.213654,122.714386 283.596405,119.186295 
	C283.133087,116.537987 280.396545,117.346275 278.535156,117.344299 
	C258.740601,117.323334 238.945953,117.372444 219.151337,117.400826 
	C216.282028,117.404945 213.412735,117.401390 210.543427,117.401390 
	C210.535400,117.743874 210.527374,118.086357 210.519348,118.428848 
	C222.547913,120.510422 234.576477,122.591995 247.472549,124.744904 
M341.816711,206.715424 
	C344.021301,207.900162 345.881256,210.860703 348.824005,208.837189 
	C353.135590,205.872452 357.690735,203.157639 361.613159,198.755844 
	C355.894073,194.188965 350.203369,190.162369 343.588806,186.125366 
	C341.910522,191.892883 340.533447,196.971909 338.932190,201.979263 
	C338.152130,204.418671 339.825745,205.219086 341.816711,206.715424 
z"/>
<path fill="#000000" opacity="1.000000" stroke="none" 
	d="
M138.384689,319.256165 
	C135.658569,335.389160 132.933670,351.084839 130.340424,366.802307 
	C129.858871,369.720825 128.548187,370.250519 125.857521,369.638245 
	C123.298393,369.055908 121.642838,368.639801 122.259064,365.198120 
	C125.329567,348.049225 128.113159,330.849182 131.043106,313.674896 
	C135.897842,285.218292 140.799942,256.769806 145.657990,228.313797 
	C149.398819,206.401749 153.073578,184.478348 156.866028,162.575287 
	C157.263748,160.278320 157.306519,157.506714 161.351166,158.258881 
	C164.898254,158.918518 165.656952,160.569397 165.109634,163.760391 
	C156.355301,214.799561 147.639862,265.845398 138.908401,316.888489 
	C138.796524,317.542480 138.592407,318.180756 138.384689,319.256165 
z"/>
<path fill="#000000" opacity="1.000000" stroke="none" 
	d="
M169.145966,306.380920 
	C174.861465,273.058044 180.438080,240.148682 186.042786,207.244080 
	C188.218079,194.473160 190.455551,181.712814 192.667740,168.948196 
	C193.120117,166.338028 192.998856,163.584091 197.297913,164.293549 
	C201.419342,164.973724 201.255493,166.938080 200.689270,170.239777 
	C191.449615,224.116150 182.343826,278.015472 173.188370,331.906311 
	C170.908112,345.328430 168.552155,358.737610 166.248047,372.155701 
	C165.799744,374.766449 165.023621,376.428162 161.667923,375.693909 
	C158.585617,375.019470 157.508118,373.913086 158.084641,370.633636 
	C161.822662,349.370941 165.393036,328.078796 169.145966,306.380920 
z"/>
<path fill="#000000" opacity="1.000000" stroke="none" 
	d="
M257.207458,253.403183 
	C261.445129,228.918701 265.624786,204.862396 269.591675,180.771072 
	C270.167969,177.271194 272.128174,177.470551 274.568970,177.720413 
	C277.341644,178.004257 278.093994,179.334000 277.606781,182.143631 
	C274.001556,202.933807 270.573364,223.754578 267.032013,244.555954 
	C261.816589,275.191040 256.544006,305.816406 251.314407,336.449127 
	C248.603241,352.329926 245.967346,368.223694 243.206207,384.095703 
	C242.776764,386.564301 242.836273,389.753845 238.656952,389.076569 
	C234.494934,388.402069 234.504120,385.890045 235.088348,382.499207 
	C242.476929,339.616119 249.766266,296.715942 257.207458,253.403183 
z"/>
<path fill="#000000" opacity="1.000000" stroke="none" 
	d="
M207.434113,326.551941 
	C210.996094,305.493652 214.415070,284.852753 217.929291,264.228088 
	C222.809525,235.586487 227.756210,206.956192 232.691925,178.324066 
	C233.082535,176.058167 233.609467,173.815781 234.050659,171.671326 
	C241.169891,171.037308 242.160355,172.094849 241.067078,178.453079 
	C233.804321,220.691528 226.550354,262.931488 219.322311,305.175842 
	C215.205231,329.238281 211.208389,353.321655 206.943787,377.357697 
	C206.558411,379.529724 207.581177,383.499786 202.528976,382.858124 
	C198.008072,382.283936 198.223969,379.678345 198.762115,376.551300 
	C201.606415,360.024170 204.474060,343.501099 207.434113,326.551941 
z"/>
<path fill="#000000" opacity="1.000000" stroke="none" 
	d="
M291.720764,277.971558 
	C295.388855,256.592255 299.028351,235.647842 302.646271,214.699738 
	C304.144165,206.026794 305.568481,197.341080 307.084442,188.671356 
	C307.582458,185.823166 308.037170,183.013748 312.289948,183.878632 
	C316.326141,184.699478 315.587311,187.501434 315.167725,190.037415 
	C312.862579,203.969681 310.448883,217.884033 308.054138,231.801407 
	C302.503357,264.060303 296.916168,296.312927 291.394562,328.576813 
	C287.919983,348.879242 284.600861,369.208618 281.018127,389.491669 
	C280.647095,391.592072 281.312256,394.878784 277.581299,395.262970 
	C273.647675,395.668060 271.988129,393.671692 272.778503,388.896545 
	C274.785492,376.770966 276.945557,364.670807 279.019073,352.556122 
	C283.249268,327.840576 287.462952,303.122192 291.720764,277.971558 
z"/>
</svg>